<svg xmlns="http://www.w3.org/2000/svg" xmlns:xlink="http://www.w3.org/1999/xlink" width="200" zoomAndPan="magnify" viewBox="0 0 150 149.999998" height="200" preserveAspectRatio="xMidYMid meet" version="1.0"><defs><clipPath id="fc7e9c21bb"><path d="M 85 22.542969 L 94 22.542969 L 94 28 L 85 28 Z M 85 22.542969 " clip-rule="nonzero"/></clipPath><clipPath id="67f260f190"><path d="M 69 102 L 150 102 L 150 127.542969 L 69 127.542969 Z M 69 102 " clip-rule="nonzero"/></clipPath></defs><path fill="#3f7f00" d="M 74.195312 76.546875 C 73.628906 76.390625 73.058594 76.5625 72.492188 76.660156 C 71.390625 76.882812 70.316406 77.210938 69.230469 77.503906 C 68.074219 77.828125 67.078125 78.464844 66.066406 79.09375 C 65.289062 79.664062 64.714844 80.378906 64.179688 81.164062 C 63.558594 82.183594 63.21875 83.335938 62.902344 84.476562 C 62.480469 85.90625 62.273438 87.386719 62.03125 88.855469 C 61.824219 90.367188 61.566406 91.867188 61.320312 93.371094 C 61.171875 94.675781 60.890625 95.953125 60.558594 97.222656 C 60.277344 98.210938 59.945312 99.1875 59.664062 100.175781 C 59.414062 100.707031 59.191406 101.253906 58.957031 101.773438 C 58.855469 102.097656 58.691406 102.402344 58.558594 102.703125 C 58.882812 101.902344 58.445312 101.601562 57.617188 101.359375 C 57.574219 101.460938 58.046875 101.144531 58.171875 101.082031 C 58.855469 100.460938 59.523438 99.832031 60.144531 99.148438 C 61.023438 98.15625 62.035156 97.292969 63.0625 96.460938 C 64.007812 95.699219 65.015625 95.007812 66.007812 94.304688 C 67.117188 93.570312 68.21875 92.816406 69.242188 91.957031 C 70.585938 90.777344 71.671875 89.386719 72.742188 87.96875 C 73.640625 86.578125 74.320312 85.078125 74.929688 83.546875 C 75.457031 82.273438 75.917969 80.980469 76.375 79.683594 C 76.953125 79.113281 76.828125 78.519531 76.976562 77.902344 C 77.0625 77.550781 77.339844 77.488281 77.480469 77.820312 C 77.765625 78.511719 77.984375 79.242188 78.28125 79.953125 C 78.332031 81.589844 77.859375 83.085938 77.128906 84.546875 C 76.316406 86.136719 75.527344 87.757812 74.476562 89.207031 C 73.402344 90.792969 72.128906 92.25 70.792969 93.617188 C 69.765625 94.671875 68.746094 95.746094 67.484375 96.519531 C 66.507812 97.132812 65.519531 97.726562 64.589844 98.410156 C 63.640625 99.195312 62.722656 100.003906 61.878906 100.902344 C 61.050781 101.613281 60.269531 102.398438 59.257812 102.863281 C 58.800781 103.121094 58.347656 103.425781 57.828125 103.527344 C 56.675781 103.238281 56.421875 102.785156 56.800781 101.765625 C 56.941406 101.527344 57.09375 101.253906 57.246094 101.003906 C 57.445312 100.496094 57.6875 99.984375 57.847656 99.449219 C 58.300781 98.585938 58.675781 97.699219 58.972656 96.773438 C 59.316406 95.558594 59.660156 94.34375 59.90625 93.105469 C 60.203125 91.621094 60.449219 90.125 60.699219 88.632812 C 60.957031 87.121094 61.273438 85.625 61.570312 84.121094 C 61.933594 82.851562 62.253906 81.566406 62.867188 80.386719 C 63.484375 79.371094 64.082031 78.363281 65.140625 77.75 C 66.230469 77.007812 67.359375 76.363281 68.535156 75.777344 C 69.621094 75.230469 70.722656 74.742188 71.882812 74.367188 C 72.597656 74.128906 73.324219 73.910156 74.050781 73.699219 C 75.984375 73.132812 76.136719 77.078125 74.191406 76.546875 Z M 74.195312 76.546875 " fill-opacity="1" fill-rule="nonzero"/><path fill="#3f7f00" d="M 77.796875 75.15625 C 78.253906 75.175781 78.710938 75.34375 79.15625 75.484375 C 80 75.703125 80.847656 75.875 81.707031 76.011719 C 82.746094 76.292969 83.828125 76.339844 84.890625 76.378906 C 85.847656 76.410156 86.78125 76.308594 87.71875 76.148438 C 88.824219 75.957031 89.820312 75.445312 90.828125 74.976562 C 91.78125 74.472656 92.609375 73.824219 93.410156 73.117188 C 93.867188 72.742188 94.105469 72.210938 94.382812 71.746094 C 94.578125 71.550781 94.46875 71.292969 94.507812 71.082031 C 94.503906 70.992188 94.472656 70.933594 94.453125 70.847656 C 94.417969 70.78125 94.5 70.984375 94.527344 71.054688 C 94.621094 71.109375 94.734375 71.113281 94.839844 71.144531 C 94.179688 71.113281 93.507812 71.300781 92.859375 71.441406 C 91.695312 71.765625 90.519531 72.035156 89.351562 72.347656 C 88.207031 72.617188 87.066406 72.886719 85.914062 73.132812 C 84.726562 73.570312 83.558594 73.714844 82.375 73.628906 C 81.128906 73.921875 79.859375 74.074219 78.589844 74.226562 C 78.230469 74.269531 78.175781 73.761719 78.53125 73.71875 C 79.78125 73.570312 81.035156 73.421875 82.261719 73.132812 C 83.261719 72.539062 84.382812 72.105469 85.613281 71.90625 C 86.753906 71.617188 87.910156 71.394531 89.0625 71.148438 C 90.214844 70.878906 91.34375 70.554688 92.445312 70.105469 C 93.164062 69.828125 93.890625 69.5625 94.621094 69.316406 C 95.195312 69.234375 95.554688 69.109375 96.054688 69.523438 C 96.199219 69.792969 96.492188 70.023438 96.480469 70.359375 C 96.503906 70.648438 96.597656 70.933594 96.554688 71.234375 C 96.449219 71.710938 96.351562 72.1875 96.140625 72.632812 C 95.644531 73.289062 95.195312 73.972656 94.453125 74.394531 C 93.5 75.066406 92.523438 75.714844 91.457031 76.203125 C 90.351562 76.796875 89.238281 77.398438 88.019531 77.734375 C 86.953125 77.871094 85.894531 77.933594 84.824219 77.796875 C 83.699219 77.710938 82.566406 77.613281 81.441406 77.488281 C 80.570312 77.292969 79.699219 77.105469 78.820312 76.953125 C 78.285156 76.835938 77.742188 76.773438 77.289062 76.441406 C 76.507812 75.859375 76.824219 75.121094 77.796875 75.160156 Z M 77.796875 75.15625 " fill-opacity="1" fill-rule="nonzero"/><path fill="#3f7f00" d="M 98.628906 69.742188 C 99.675781 69.859375 100.570312 69.585938 101.636719 69.613281 C 103.441406 69.828125 105.238281 70.046875 107.039062 70.292969 C 109.160156 70.738281 111.152344 71.601562 113.203125 72.289062 C 115.023438 73.09375 116.882812 73.808594 118.6875 74.660156 C 119.867188 75.078125 120.929688 75.742188 122.042969 76.308594 C 122.714844 76.519531 123.226562 76.980469 123.757812 77.421875 C 124.484375 78.113281 124.695312 78.726562 124.574219 79.75 C 124 80.894531 123.464844 80.730469 122.308594 80.359375 C 121.96875 80.25 122.09375 80.300781 122 79.953125 C 121.941406 79.746094 121.636719 78.117188 121.285156 78.984375 C 121.300781 79.113281 121.5 80.382812 121.40625 79.734375 C 121.082031 79.402344 120.773438 79.035156 120.425781 78.71875 C 119.546875 77.964844 118.617188 77.28125 117.691406 76.589844 C 116.003906 75.632812 114.304688 74.710938 112.488281 74.027344 C 110.640625 73.113281 108.691406 72.425781 106.691406 71.925781 C 105.011719 71.425781 103.328125 71.222656 101.566406 71.320312 C 100.550781 71.28125 99.695312 70.925781 98.707031 71.160156 C 97.730469 71.386719 97.632812 69.628906 98.632812 69.742188 Z M 98.628906 69.742188 " fill-opacity="1" fill-rule="nonzero"/><path fill="#3f7f00" d="M 78.546875 70.523438 C 78.78125 70.109375 79.125 69.769531 79.386719 69.363281 C 79.699219 68.925781 79.894531 68.433594 80.09375 67.9375 C 80.25 67.46875 80.355469 66.984375 80.476562 66.5 C 80.59375 65.992188 80.539062 65.488281 80.484375 64.976562 C 80.347656 64.285156 80.078125 63.632812 79.847656 62.96875 C 79.445312 62.128906 79.105469 61.265625 78.636719 60.457031 C 78.207031 59.550781 77.539062 58.789062 76.90625 58.023438 C 76.242188 57.226562 75.390625 56.625 74.636719 55.925781 C 73.933594 55.328125 73.214844 54.75 72.464844 54.210938 C 71.988281 53.847656 71.460938 53.550781 70.957031 53.222656 C 70.671875 53.09375 70.429688 52.910156 70.164062 52.753906 C 70.027344 52.722656 69.898438 52.695312 69.761719 52.664062 C 69.691406 52.308594 69.59375 52.46875 69.339844 52.402344 C 69.089844 52.570312 68.902344 52.800781 68.730469 53.042969 C 68.476562 53.484375 68.289062 53.953125 68.101562 54.421875 C 67.863281 55.007812 67.785156 55.640625 67.710938 56.265625 C 67.65625 57.019531 67.625 57.78125 67.648438 58.535156 C 67.695312 59.472656 67.847656 60.410156 68.023438 61.332031 C 68.253906 62.328125 68.582031 63.296875 68.886719 64.273438 C 69.28125 65.222656 69.675781 66.164062 70.160156 67.070312 C 70.671875 67.890625 71.101562 68.75 71.691406 69.519531 C 72.328125 70.355469 73.066406 71.140625 73.882812 71.800781 C 74.46875 72.238281 74.886719 72.804688 75.519531 73.171875 C 75.675781 73.261719 75.550781 73.480469 75.394531 73.390625 C 74.75 73.019531 74 72.851562 73.449219 72.324219 C 72.601562 71.585938 71.722656 70.890625 71.03125 69.996094 C 70.464844 69.171875 69.910156 68.324219 69.519531 67.398438 C 69.058594 66.449219 68.585938 65.492188 68.28125 64.480469 C 67.910156 63.5 67.664062 62.476562 67.484375 61.445312 C 67.269531 60.488281 67.070312 59.535156 67.035156 58.550781 C 67.015625 57.761719 67.003906 56.980469 67.125 56.195312 C 67.230469 55.527344 67.328125 54.867188 67.53125 54.21875 C 67.710938 53.707031 67.890625 53.195312 68.160156 52.722656 C 68.34375 52.339844 68.480469 51.957031 68.835938 51.679688 C 69.140625 51.382812 69.441406 51.097656 69.796875 50.859375 C 70.175781 50.867188 70.539062 50.859375 70.886719 51.050781 C 71.296875 51.203125 71.675781 51.378906 71.996094 51.679688 C 72.527344 52.058594 73.019531 52.480469 73.511719 52.90625 C 74.222656 53.535156 74.929688 54.175781 75.617188 54.828125 C 76.441406 55.539062 77.175781 56.355469 77.917969 57.152344 C 78.648438 57.964844 79.277344 58.847656 79.886719 59.75 C 80.355469 60.613281 80.851562 61.472656 81.199219 62.390625 C 81.570312 63.125 81.894531 63.886719 82.082031 64.691406 C 82.207031 65.40625 82.285156 66.105469 82.117188 66.828125 C 82 67.453125 81.859375 68.058594 81.542969 68.617188 C 81.234375 69.160156 80.90625 69.695312 80.5 70.175781 C 80.1875 70.542969 79.933594 70.984375 79.585938 71.292969 C 78.898438 71.902344 78.09375 71.316406 78.546875 70.523438 Z M 78.546875 70.523438 " fill-opacity="1" fill-rule="nonzero"/><path fill="#3f7f00" d="M 87.359375 70.339844 C 87.738281 70.320312 88.109375 70.179688 88.480469 70.050781 C 89.484375 69.597656 90.210938 68.730469 90.894531 67.890625 C 91.933594 66.464844 92.648438 64.855469 93.300781 63.222656 C 93.949219 61.550781 94.441406 59.824219 94.902344 58.089844 C 95.265625 56.675781 95.523438 55.242188 95.75 53.800781 C 95.925781 52.667969 96.007812 51.523438 95.980469 50.378906 C 95.980469 49.519531 95.835938 48.679688 95.695312 47.839844 C 95.558594 47.195312 95.367188 46.566406 95.164062 45.945312 C 95.085938 45.570312 94.878906 45.277344 94.660156 44.980469 C 94.59375 44.871094 94.488281 44.789062 94.402344 44.695312 C 94.773438 44.445312 93.933594 44.777344 93.824219 44.828125 C 93.042969 45.375 92.429688 46.097656 91.855469 46.851562 C 90.980469 48.09375 90.332031 49.464844 89.671875 50.828125 C 88.828125 52.550781 88.085938 54.316406 87.410156 56.109375 C 86.6875 58.0625 86.078125 60.050781 85.5625 62.0625 C 85.09375 63.976562 84.734375 65.917969 84.542969 67.878906 C 84.382812 68.679688 84.421875 69.488281 84.464844 70.300781 C 84.472656 70.480469 84.21875 70.492188 84.210938 70.3125 C 84.167969 69.488281 84.148438 68.664062 84.144531 67.839844 C 84.339844 65.855469 84.679688 63.894531 85.28125 61.984375 C 85.871094 59.984375 86.429688 57.972656 87.171875 56.019531 C 87.851562 54.21875 88.554688 52.425781 89.433594 50.710938 C 90.117188 49.34375 90.769531 47.960938 91.457031 46.597656 C 91.945312 45.691406 92.480469 44.816406 93.207031 44.082031 C 93.726562 43.5 94.230469 42.898438 95.085938 43.042969 C 95.550781 43.277344 95.910156 43.523438 96.210938 43.96875 C 96.457031 44.457031 96.667969 44.953125 96.796875 45.484375 C 96.945312 46.183594 97.085938 46.886719 97.191406 47.597656 C 97.316406 48.523438 97.394531 49.457031 97.351562 50.394531 C 97.296875 51.613281 97.195312 52.828125 96.941406 54.023438 C 96.625 55.480469 96.199219 56.90625 95.769531 58.332031 C 95.257812 60.082031 94.726562 61.824219 94.070312 63.527344 C 93.410156 65.230469 92.703125 66.925781 91.78125 68.503906 C 91.113281 69.644531 90.363281 70.699219 89.261719 71.460938 C 88.785156 71.769531 88.28125 72.125 87.726562 72.222656 C 86.390625 72.460938 86.003906 70.40625 87.359375 70.339844 Z M 87.359375 70.339844 " fill-opacity="1" fill-rule="nonzero"/><path fill="#3f7f00" d="M 92.640625 69.445312 C 93.128906 69.230469 93.585938 68.894531 94.015625 68.574219 C 95.039062 67.753906 95.949219 66.804688 96.839844 65.84375 C 97.785156 64.777344 98.632812 63.632812 99.421875 62.445312 C 100.128906 61.320312 100.828125 60.195312 101.484375 59.042969 C 102.09375 58.019531 102.675781 57 103.046875 55.859375 C 103.101562 55.679688 103.152344 55.5 103.207031 55.320312 C 103.257812 55.148438 103.5 55.21875 103.449219 55.390625 C 103.398438 55.574219 103.34375 55.757812 103.289062 55.9375 C 102.914062 57.089844 102.601562 58.277344 102.054688 59.351562 C 101.445312 60.550781 100.765625 61.734375 99.96875 62.820312 C 99.136719 64.011719 98.332031 65.222656 97.378906 66.320312 C 96.515625 67.339844 95.582031 68.296875 94.71875 69.3125 C 94.304688 69.808594 93.914062 70.328125 93.441406 70.773438 C 92.644531 71.519531 91.640625 69.882812 92.640625 69.445312 Z M 92.640625 69.445312 " fill-opacity="1" fill-rule="nonzero"/><path fill="#3f7f00" d="M 104.644531 46.65625 C 104.585938 46.417969 104.714844 46.058594 104.785156 45.78125 C 104.890625 45.328125 104.898438 44.871094 104.875 44.410156 C 104.902344 44.03125 104.835938 43.660156 104.792969 43.285156 C 104.8125 43.160156 104.695312 42.9375 104.683594 42.890625 C 105.011719 43.09375 104.683594 42.871094 104.652344 43.050781 C 103.984375 43.5625 103.535156 44.292969 103.105469 45.003906 C 102.296875 46.324219 101.433594 47.613281 100.574219 48.898438 C 99.621094 50.304688 98.648438 51.695312 97.714844 53.109375 C 96.777344 54.519531 95.894531 55.960938 95.074219 57.4375 C 94.984375 57.59375 94.761719 57.472656 94.851562 57.3125 C 95.675781 55.828125 96.558594 54.382812 97.5 52.96875 C 98.4375 51.554688 99.410156 50.160156 100.363281 48.757812 C 101.21875 47.472656 102.082031 46.191406 102.886719 44.871094 C 103.347656 44.109375 103.703125 43.285156 104.207031 42.546875 C 104.601562 42.136719 104.898438 41.945312 105.40625 42.324219 C 105.5625 42.613281 105.71875 42.859375 105.683594 43.222656 C 105.679688 43.628906 105.660156 44.035156 105.660156 44.441406 C 105.589844 44.921875 105.535156 45.402344 105.5 45.886719 C 105.484375 46.203125 105.511719 46.597656 105.359375 46.835938 C 105.078125 47.273438 104.765625 47.164062 104.644531 46.65625 Z M 104.644531 46.65625 " fill-opacity="1" fill-rule="nonzero"/><path fill="#3f7f00" d="M 99.097656 65.707031 C 99.398438 65.03125 99.953125 64.566406 100.441406 64.035156 C 101.589844 62.820312 102.429688 61.367188 103.449219 60.050781 C 104.769531 58.464844 106.023438 56.828125 107.222656 55.148438 C 108.488281 53.285156 109.835938 51.449219 110.808594 49.414062 C 111.585938 47.804688 112.136719 46.109375 112.601562 44.386719 C 113.023438 43.015625 113.328125 41.613281 113.652344 40.21875 C 113.835938 39.175781 113.980469 38.132812 114.027344 37.074219 C 114.117188 36.515625 113.953125 35.992188 113.8125 35.476562 C 113.738281 35.300781 113.570312 35.242188 113.433594 35.132812 C 113.414062 35.074219 113.183594 35.1875 113.074219 35.210938 C 111.875 35.609375 110.996094 36.300781 110.195312 37.265625 C 109.445312 38.257812 109.820312 37.738281 109.082031 38.824219 C 108.980469 38.976562 108.769531 38.832031 108.871094 38.683594 C 109.617188 37.582031 109.238281 38.109375 110 37.101562 C 110.847656 36.082031 111.460938 34.914062 112.355469 33.949219 C 113.0625 33.433594 113.753906 33.265625 114.535156 33.730469 C 114.941406 34.125 115.28125 34.53125 115.382812 35.113281 C 115.421875 35.839844 115.386719 36.527344 115.203125 37.238281 C 114.960938 38.296875 114.683594 39.351562 114.363281 40.390625 C 114.007812 41.792969 113.597656 43.179688 113.242188 44.582031 C 112.667969 46.296875 111.972656 47.976562 111.105469 49.566406 C 110.003906 51.554688 109.039062 53.625 107.761719 55.515625 C 106.621094 57.253906 105.390625 58.921875 104.128906 60.574219 C 103.125 61.898438 102.003906 63.144531 101.144531 64.578125 C 100.746094 65.199219 100.414062 65.847656 99.808594 66.296875 C 99.285156 66.6875 98.828125 66.304688 99.097656 65.707031 Z M 99.097656 65.707031 " fill-opacity="1" fill-rule="nonzero"/><path fill="#3f7f00" d="M 73.671875 74.289062 C 73.085938 74.101562 72.5 73.917969 71.90625 73.75 C 70.320312 73.28125 68.773438 72.695312 67.234375 72.078125 C 65.050781 71.386719 63.015625 70.371094 61.105469 69.117188 C 59.082031 67.722656 57.433594 65.90625 55.886719 64.019531 C 54.613281 62.460938 53.503906 60.78125 52.433594 59.085938 C 51.839844 58.085938 51.445312 56.996094 51 55.933594 C 50.773438 55.460938 50.582031 54.976562 50.371094 54.5 C 50.253906 54.277344 50.136719 54.0625 50.011719 53.84375 C 49.867188 53.125 50.292969 52.90625 50.941406 52.925781 C 51.5625 53.171875 52.140625 53.511719 52.773438 53.726562 C 53.945312 54.257812 55.179688 54.628906 56.398438 55.027344 C 58.125 55.753906 59.753906 56.6875 61.304688 57.734375 C 62.886719 58.675781 64.335938 59.785156 65.707031 61.007812 C 66.382812 61.753906 66.964844 62.5625 67.628906 63.320312 C 67.746094 63.457031 67.554688 63.625 67.4375 63.488281 C 66.777344 62.734375 66.054688 62.117188 65.253906 61.519531 C 63.914062 60.316406 62.5 59.195312 61.046875 58.132812 C 59.496094 57.160156 57.96875 56.121094 56.222656 55.523438 C 55.019531 55.0625 53.761719 54.78125 52.503906 54.503906 C 51.9375 54.308594 51.34375 54.148438 50.742188 54.109375 C 50.914062 53.984375 51.355469 53.863281 51.21875 53.449219 C 51.277344 53.628906 51.328125 53.898438 51.414062 54.097656 C 51.570312 54.621094 51.703125 55.152344 51.746094 55.699219 C 51.96875 56.800781 52.359375 57.851562 52.828125 58.871094 C 53.664062 60.6875 54.828125 62.308594 56.082031 63.855469 C 57.613281 65.722656 59.246094 67.523438 61.246094 68.90625 C 63.132812 70.144531 65.144531 71.167969 67.320312 71.8125 C 68.894531 72.191406 70.488281 72.566406 72.105469 72.667969 C 72.628906 72.71875 73.179688 72.820312 73.699219 72.714844 C 74.789062 72.488281 74.730469 74.632812 73.671875 74.289062 Z M 73.671875 74.289062 " fill-opacity="1" fill-rule="nonzero"/><path fill="#3f7f00" d="M 72.234375 74.203125 C 71.828125 74.390625 71.375 74.453125 70.929688 74.503906 C 69.832031 74.605469 68.734375 74.699219 67.632812 74.707031 C 65.820312 74.710938 64.003906 74.671875 62.1875 74.683594 C 59.882812 74.714844 57.59375 74.542969 55.300781 74.398438 C 52.746094 74.214844 50.21875 73.847656 47.714844 73.316406 C 45.207031 72.789062 42.773438 72.003906 40.347656 71.183594 C 38.339844 70.519531 36.40625 69.679688 34.496094 68.777344 C 33.265625 68.140625 32.003906 67.554688 30.804688 66.859375 C 30.121094 66.507812 29.492188 66.050781 28.878906 65.597656 C 28.425781 65.257812 28.101562 64.839844 27.828125 64.355469 C 27.617188 63.972656 27.53125 63.554688 27.433594 63.140625 C 27.359375 62.859375 27.359375 62.578125 27.367188 62.292969 C 27.386719 61.832031 27.625 61.570312 27.910156 61.242188 C 28.378906 61.003906 28.855469 61.074219 29.355469 61.105469 C 30.09375 61.070312 30.835938 61.121094 31.574219 61.121094 C 32.742188 61.203125 33.910156 61.261719 35.074219 61.398438 C 36.441406 61.558594 37.808594 61.742188 39.175781 61.90625 C 40.605469 62.046875 41.984375 62.449219 43.359375 62.839844 C 44.808594 63.289062 46.257812 63.738281 47.71875 64.160156 C 49.132812 64.5625 50.433594 65.238281 51.800781 65.773438 C 51.96875 65.835938 51.875 66.074219 51.707031 66.011719 C 50.339844 65.476562 48.917969 65.285156 47.507812 64.886719 C 46.050781 64.464844 44.59375 64.046875 43.136719 63.621094 C 41.796875 63.238281 40.4375 62.949219 39.0625 62.722656 C 37.710938 62.503906 36.355469 62.378906 34.992188 62.285156 C 33.863281 62.214844 32.734375 62.109375 31.605469 62.222656 C 30.894531 62.265625 30.199219 62.394531 29.496094 62.511719 C 29.4375 62.527344 28.652344 62.777344 29.066406 62.703125 C 29.109375 62.632812 29.296875 62.421875 29.265625 62.382812 C 29.269531 62.421875 29.328125 62.675781 29.316406 62.796875 C 29.355469 63.007812 29.378906 63.21875 29.496094 63.398438 C 29.675781 63.640625 29.839844 63.886719 30.085938 64.070312 C 30.636719 64.515625 31.207031 64.9375 31.765625 65.371094 C 32.855469 66.160156 33.929688 66.96875 35.101562 67.636719 C 36.875 68.6875 38.695312 69.664062 40.613281 70.429688 C 42.976562 71.308594 45.40625 72.011719 47.875 72.527344 C 50.347656 72.996094 52.84375 73.34375 55.355469 73.488281 C 57.621094 73.628906 59.894531 73.597656 62.160156 73.488281 C 63.957031 73.421875 65.753906 73.304688 67.542969 73.125 C 68.613281 73.007812 69.6875 72.933594 70.753906 72.816406 C 71.195312 72.78125 71.644531 72.730469 72.066406 72.878906 C 72.957031 73.1875 73.09375 73.808594 72.234375 74.203125 Z M 72.234375 74.203125 " fill-opacity="1" fill-rule="nonzero"/><path fill="#3f7f00" d="M 77.8125 55.695312 C 77.988281 55.199219 78.308594 54.78125 78.652344 54.390625 C 79.253906 53.511719 79.851562 52.636719 80.480469 51.78125 C 81.101562 50.867188 81.75 49.980469 82.484375 49.152344 C 83.066406 48.480469 83.773438 48.035156 84.632812 47.8125 C 85.539062 47.652344 86.300781 48.050781 86.992188 48.597656 C 87.855469 49.132812 88.195312 50.027344 88.722656 50.824219 C 88.796875 50.949219 88.867188 51.070312 88.941406 51.195312 C 89.03125 51.351562 88.8125 51.480469 88.71875 51.324219 C 88.652344 51.203125 88.582031 51.085938 88.511719 50.964844 C 88.03125 50.242188 87.238281 49.742188 86.605469 49.152344 C 86.03125 48.8125 85.453125 48.496094 84.765625 48.515625 C 84.027344 48.664062 83.378906 48.925781 82.832031 49.488281 C 82.058594 50.238281 81.375 51.082031 80.773438 51.976562 C 80.210938 52.867188 79.640625 53.746094 79.160156 54.679688 C 79.035156 55.078125 78.859375 55.460938 78.808594 55.875 C 78.726562 56.589844 77.570312 56.371094 77.8125 55.695312 Z M 77.8125 55.695312 " fill-opacity="1" fill-rule="nonzero"/><path fill="#3f7f00" d="M 80.097656 52.011719 C 79.988281 51.847656 79.796875 51.71875 79.640625 51.582031 C 79.390625 51.300781 79.066406 51.105469 78.765625 50.886719 C 78.445312 50.703125 78.085938 50.613281 77.730469 50.519531 C 77.328125 50.445312 76.921875 50.441406 76.515625 50.433594 C 76.128906 50.441406 75.765625 50.554688 75.398438 50.660156 C 75.0625 50.78125 74.800781 51.019531 74.519531 51.230469 C 74.21875 51.503906 73.976562 51.832031 73.75 52.167969 C 73.535156 52.476562 73.390625 52.828125 73.226562 53.167969 C 73.199219 53.21875 73.171875 53.273438 73.148438 53.324219 C 73.066406 53.484375 72.871094 53.417969 72.90625 53.242188 C 72.917969 53.183594 72.929688 53.125 72.941406 53.066406 C 73.039062 52.667969 73.136719 52.261719 73.351562 51.90625 C 73.597656 51.535156 73.84375 51.164062 74.15625 50.84375 C 74.476562 50.535156 74.78125 50.238281 75.226562 50.117188 C 75.644531 49.992188 76.066406 49.917969 76.5 49.894531 C 76.949219 49.886719 77.398438 49.90625 77.839844 50.011719 C 78.261719 50.105469 78.675781 50.199219 79.035156 50.453125 C 79.367188 50.675781 79.699219 50.890625 80.019531 51.128906 C 80.214844 51.300781 80.414062 51.464844 80.574219 51.671875 C 80.828125 52 80.320312 52.363281 80.097656 52.011719 Z M 80.097656 52.011719 " fill-opacity="1" fill-rule="nonzero"/><path fill="#3f7f00" d="M 64.660156 59.722656 C 64.679688 59.453125 64.59375 59.183594 64.542969 58.917969 C 64.363281 58.230469 64.210938 57.535156 64.046875 56.84375 C 63.871094 55.875 63.613281 54.925781 63.417969 53.960938 C 63.28125 52.996094 63.160156 52.035156 63.125 51.058594 C 63.085938 50.171875 63.28125 49.308594 63.429688 48.441406 C 63.535156 47.820312 63.628906 47.199219 63.777344 46.589844 C 63.867188 46.109375 64.128906 45.851562 64.515625 45.597656 C 65.101562 45.378906 65.476562 45.632812 65.917969 46.007812 C 66.492188 46.632812 67.074219 47.257812 67.65625 47.882812 C 68.347656 48.589844 68.910156 49.398438 69.453125 50.222656 C 69.550781 50.375 69.339844 50.511719 69.238281 50.363281 C 68.707031 49.550781 68.148438 48.753906 67.472656 48.054688 C 66.90625 47.453125 66.347656 46.832031 65.65625 46.371094 C 65.367188 46.253906 65.125 46.082031 64.800781 46.140625 C 64.589844 46.328125 64.367188 46.457031 64.261719 46.753906 C 64.042969 47.324219 63.828125 47.894531 63.703125 48.496094 C 63.515625 49.332031 63.449219 50.191406 63.449219 51.050781 C 63.464844 52 63.527344 52.96875 63.765625 53.890625 C 63.953125 54.84375 64.136719 55.808594 64.496094 56.710938 C 64.730469 57.375 65.027344 58 65.367188 58.613281 C 65.519531 58.902344 65.660156 59.195312 65.789062 59.492188 C 66.113281 60.242188 64.609375 60.539062 64.660156 59.722656 Z M 64.660156 59.722656 " fill-opacity="1" fill-rule="nonzero"/><path fill="#3f7f00" d="M 56.109375 54.746094 C 55.976562 54.457031 55.929688 54.136719 55.863281 53.828125 C 55.707031 53.175781 55.5625 52.519531 55.457031 51.851562 C 55.304688 50.878906 55.140625 49.90625 54.917969 48.941406 C 54.761719 48.097656 54.535156 47.261719 54.410156 46.410156 C 54.289062 45.738281 54.175781 45.066406 54.078125 44.390625 C 54.007812 44.015625 53.941406 43.648438 53.898438 43.269531 C 53.917969 42.722656 54.160156 42.601562 54.628906 42.4375 C 55.027344 42.570312 55.289062 42.902344 55.574219 43.199219 C 56.046875 43.695312 56.460938 44.238281 56.890625 44.769531 C 57.488281 45.429688 58.007812 46.144531 58.515625 46.875 C 59.070312 47.679688 59.59375 48.507812 60.128906 49.328125 C 60.640625 50.058594 61.070312 50.839844 61.503906 51.617188 C 61.808594 52.382812 62.152344 53.128906 62.425781 53.90625 C 62.683594 54.59375 62.882812 55.304688 63.097656 56.007812 C 63.1875 56.558594 63.273438 57.113281 63.378906 57.660156 C 63.414062 57.835938 63.191406 57.898438 63.132812 57.726562 C 62.957031 57.199219 62.761719 56.683594 62.542969 56.167969 C 62.34375 55.46875 62.125 54.773438 61.917969 54.074219 C 61.667969 53.320312 61.464844 52.535156 61.046875 51.851562 C 60.679688 51.054688 60.234375 50.296875 59.789062 49.542969 C 59.28125 48.714844 58.753906 47.898438 58.175781 47.117188 C 57.65625 46.414062 57.140625 45.710938 56.570312 45.050781 C 56.125 44.570312 55.664062 44.097656 55.121094 43.722656 C 55.039062 43.667969 54.566406 43.296875 54.636719 43.476562 C 54.664062 43.457031 55.113281 43.175781 54.964844 43.265625 C 54.949219 43.605469 54.910156 43.953125 54.945312 44.292969 C 55 44.960938 55.042969 45.628906 55.128906 46.292969 C 55.273438 47.132812 55.363281 47.984375 55.546875 48.816406 C 55.710938 49.777344 55.894531 50.738281 56.199219 51.660156 C 56.421875 52.277344 56.644531 52.894531 56.90625 53.492188 C 57.027344 53.78125 57.171875 54.070312 57.246094 54.375 C 57.453125 55.195312 56.46875 55.507812 56.109375 54.742188 Z M 56.109375 54.746094 " fill-opacity="1" fill-rule="nonzero"/><path fill="#3f7f00" d="M 55.925781 54.855469 C 55.6875 54.53125 55.535156 54.148438 55.359375 53.785156 C 55 52.976562 54.578125 52.207031 54.21875 51.398438 C 53.761719 50.492188 53.21875 49.628906 52.804688 48.703125 C 52.351562 47.726562 52 46.714844 51.6875 45.691406 C 51.414062 44.75 51.050781 43.847656 50.742188 42.917969 C 50.417969 42.164062 50.246094 41.355469 50.039062 40.5625 C 49.898438 39.867188 49.824219 39.164062 49.710938 38.464844 C 49.667969 37.953125 49.523438 37.472656 49.488281 36.960938 C 49.4375 36.546875 49.402344 36.132812 49.367188 35.71875 C 49.320312 35.449219 49.324219 35.179688 49.304688 34.910156 C 49.300781 34.53125 49.457031 34.179688 49.574219 33.832031 C 49.648438 33.582031 49.71875 33.347656 49.792969 33.109375 C 49.859375 32.78125 50.097656 32.625 50.324219 32.414062 C 50.707031 32.171875 51.109375 32.21875 51.535156 32.28125 C 52.101562 32.519531 52.570312 32.910156 53.046875 33.289062 C 53.742188 33.824219 54.386719 34.429688 55.054688 35 C 55.832031 35.765625 56.574219 36.566406 57.300781 37.378906 C 58.066406 38.210938 58.726562 39.132812 59.40625 40.035156 C 60.019531 40.898438 60.464844 41.859375 60.839844 42.84375 C 61.070312 43.320312 61.273438 43.8125 61.472656 44.300781 C 61.542969 44.46875 61.304688 44.566406 61.238281 44.398438 C 61.039062 43.914062 60.835938 43.425781 60.609375 42.953125 C 60.085938 42.0625 59.605469 41.15625 59.046875 40.285156 C 58.441406 39.339844 57.71875 38.527344 56.917969 37.742188 C 56.15625 36.984375 55.445312 36.179688 54.628906 35.480469 C 54.011719 34.902344 53.328125 34.40625 52.601562 33.976562 C 52.160156 33.773438 51.722656 33.542969 51.234375 33.480469 C 51.144531 33.449219 51.089844 33.390625 51.023438 33.402344 C 50.992188 33.441406 50.949219 33.480469 50.925781 33.535156 C 50.832031 33.75 50.734375 33.964844 50.648438 34.195312 C 50.582031 34.417969 50.503906 34.625 50.519531 34.867188 C 50.523438 35.140625 50.550781 35.421875 50.507812 35.691406 C 50.5 36.09375 50.484375 36.488281 50.503906 36.886719 C 50.550781 37.390625 50.480469 37.882812 50.527344 38.390625 C 50.554688 39.070312 50.621094 39.75 50.753906 40.417969 C 50.90625 41.199219 51.082031 41.976562 51.277344 42.753906 C 51.546875 43.691406 51.757812 44.644531 52.054688 45.574219 C 52.386719 46.574219 52.65625 47.597656 53.121094 48.546875 C 53.582031 49.449219 54.003906 50.367188 54.519531 51.238281 C 54.976562 51.976562 55.382812 52.75 55.925781 53.425781 C 56.179688 53.730469 56.449219 54.023438 56.679688 54.332031 C 57.066406 54.855469 56.308594 55.375 55.925781 54.855469 Z M 55.925781 54.855469 " fill-opacity="1" fill-rule="nonzero"/><path fill="#3f7f00" d="M 62.21875 48.757812 C 62.027344 48.320312 61.925781 47.847656 61.808594 47.386719 C 61.550781 46.542969 61.292969 45.703125 60.972656 44.882812 C 60.578125 43.90625 60.339844 42.886719 60.136719 41.855469 C 59.953125 40.816406 59.769531 39.78125 59.582031 38.742188 C 59.425781 37.957031 59.324219 37.167969 59.230469 36.371094 C 59.179688 35.722656 59.128906 35.070312 59.097656 34.417969 C 59.050781 33.941406 59.035156 33.460938 59.035156 32.984375 C 59.015625 32.621094 59.128906 32.28125 59.203125 31.933594 C 59.378906 31.507812 59.574219 31.367188 60.003906 31.273438 C 60.589844 31.371094 61.089844 31.703125 61.578125 32.023438 C 62.3125 32.597656 63.070312 33.144531 63.796875 33.734375 C 64.589844 34.386719 65.242188 35.175781 65.863281 35.984375 C 66.269531 36.5 66.660156 37.023438 67.019531 37.570312 C 67.121094 37.71875 66.925781 37.859375 66.8125 37.71875 C 66.414062 37.203125 66.035156 36.671875 65.664062 36.140625 C 65.054688 35.34375 64.410156 34.570312 63.632812 33.933594 C 62.925781 33.351562 62.210938 32.757812 61.378906 32.359375 C 60.953125 32.15625 60.554688 31.871094 60.066406 31.894531 C 59.980469 31.960938 59.726562 31.871094 59.78125 32.117188 C 59.679688 32.414062 59.589844 32.703125 59.566406 33.019531 C 59.515625 33.480469 59.496094 33.949219 59.453125 34.417969 C 59.433594 35.0625 59.410156 35.703125 59.496094 36.347656 C 59.574219 37.136719 59.675781 37.921875 59.832031 38.699219 C 60.019531 39.734375 60.203125 40.769531 60.386719 41.804688 C 60.585938 42.820312 60.8125 43.828125 61.21875 44.78125 C 61.5625 45.597656 61.980469 46.378906 62.3125 47.199219 C 62.507812 47.597656 62.707031 48 62.882812 48.40625 C 63.09375 48.894531 62.433594 49.246094 62.21875 48.757812 Z M 62.21875 48.757812 " fill-opacity="1" fill-rule="nonzero"/><path fill="#3f7f00" d="M 62.734375 48.4375 C 62.808594 48.058594 62.804688 47.667969 62.808594 47.28125 C 62.835938 46.652344 62.796875 46.015625 62.769531 45.382812 C 62.738281 44.726562 62.746094 44.070312 62.753906 43.414062 C 62.773438 42.9375 62.710938 42.472656 62.640625 42.003906 C 62.601562 41.613281 62.585938 41.226562 62.554688 40.84375 C 62.484375 40.511719 62.554688 40.191406 62.613281 39.867188 C 62.636719 39.585938 62.832031 39.421875 62.980469 39.210938 C 63.222656 38.90625 63.480469 38.957031 63.816406 38.925781 C 64.355469 39.015625 64.78125 39.3125 65.207031 39.632812 C 65.75 40.082031 66.210938 40.605469 66.613281 41.183594 C 67.074219 41.90625 67.460938 42.671875 67.855469 43.433594 C 68.234375 44.195312 68.597656 44.964844 68.953125 45.734375 C 69.273438 46.371094 69.507812 47.035156 69.742188 47.703125 C 69.769531 47.792969 69.796875 47.878906 69.824219 47.96875 C 69.878906 48.140625 69.636719 48.21875 69.582031 48.046875 C 69.554688 47.960938 69.527344 47.871094 69.5 47.785156 C 69.269531 47.125 69.007812 46.480469 68.722656 45.84375 C 68.367188 45.074219 68.007812 44.308594 67.628906 43.550781 C 67.238281 42.800781 66.859375 42.042969 66.402344 41.328125 C 66.023438 40.78125 65.597656 40.253906 65.035156 39.882812 C 64.640625 39.675781 64.257812 39.421875 63.792969 39.398438 C 63.636719 39.441406 63.472656 39.398438 63.359375 39.546875 C 63.257812 39.6875 63.132812 39.808594 63.0625 39.96875 C 63.035156 40.253906 62.996094 40.539062 62.992188 40.828125 C 63.003906 41.203125 63.03125 41.589844 63.058594 41.976562 C 63.046875 42.457031 63.03125 42.9375 63.007812 43.417969 C 63 44.070312 62.996094 44.722656 63.027344 45.371094 C 63.050781 46.003906 63.066406 46.636719 63.175781 47.261719 C 63.226562 47.632812 63.261719 48.015625 63.40625 48.363281 C 63.589844 48.800781 62.648438 48.90625 62.734375 48.4375 Z M 62.734375 48.4375 " fill-opacity="1" fill-rule="nonzero"/><path fill="#3f7f00" d="M 66.484375 41.394531 C 66.542969 41.066406 66.566406 40.730469 66.585938 40.394531 C 66.589844 39.863281 66.707031 39.351562 66.835938 38.839844 C 66.945312 38.257812 67.144531 37.703125 67.363281 37.15625 C 67.601562 36.636719 67.984375 36.277344 68.421875 35.933594 C 68.796875 35.636719 69.234375 35.445312 69.652344 35.222656 C 70.113281 34.976562 70.570312 34.964844 71.066406 34.996094 C 71.722656 35.199219 72.1875 35.675781 72.679688 36.128906 C 73.320312 36.730469 73.621094 37.566406 73.925781 38.371094 C 73.988281 38.539062 73.75 38.628906 73.683594 38.460938 C 73.398438 37.6875 72.984375 37.023438 72.386719 36.445312 C 71.953125 36.09375 71.515625 35.734375 70.957031 35.613281 C 70.570312 35.585938 70.257812 35.554688 69.902344 35.769531 C 69.5 35.941406 69.117188 36.144531 68.75 36.386719 C 68.402344 36.667969 68.070312 36.96875 67.886719 37.394531 C 67.664062 37.898438 67.453125 38.402344 67.359375 38.949219 C 67.292969 39.433594 67.21875 39.917969 67.226562 40.40625 C 67.242188 40.710938 67.238281 41.03125 67.339844 41.316406 C 67.542969 41.886719 66.382812 41.992188 66.484375 41.394531 Z M 66.484375 41.394531 " fill-opacity="1" fill-rule="nonzero"/><path fill="#3f7f00" d="M 73.347656 43.394531 C 73.402344 43.105469 73.417969 42.816406 73.464844 42.527344 C 73.511719 41.929688 73.585938 41.347656 73.683594 40.757812 C 73.824219 40.082031 73.992188 39.417969 74.160156 38.753906 C 74.265625 38.175781 74.445312 37.621094 74.644531 37.070312 C 74.789062 36.632812 74.996094 36.230469 75.246094 35.84375 C 75.449219 35.507812 75.753906 35.269531 76.046875 35.023438 C 76.351562 34.726562 76.675781 34.640625 77.082031 34.582031 C 77.628906 34.566406 78.089844 34.777344 78.5625 35.003906 C 79.136719 35.445312 79.601562 35.996094 79.996094 36.601562 C 80.519531 37.328125 80.828125 38.171875 81.21875 38.96875 C 81.683594 39.769531 81.992188 40.648438 82.304688 41.519531 C 82.554688 42.328125 82.675781 43.164062 82.921875 43.972656 C 82.976562 44.144531 82.734375 44.21875 82.679688 44.046875 C 82.433594 43.246094 82.058594 42.503906 81.734375 41.734375 C 81.40625 40.886719 81.03125 40.066406 80.667969 39.238281 C 80.292969 38.46875 79.867188 37.730469 79.421875 37.003906 C 79.054688 36.496094 78.683594 35.988281 78.160156 35.632812 C 77.839844 35.402344 77.539062 35.160156 77.128906 35.15625 C 76.867188 35.222656 76.585938 35.246094 76.351562 35.417969 C 76.101562 35.640625 75.839844 35.84375 75.628906 36.113281 C 75.398438 36.464844 75.148438 36.8125 74.996094 37.210938 C 74.785156 37.742188 74.574219 38.269531 74.417969 38.820312 C 74.242188 39.472656 74.054688 40.128906 73.976562 40.804688 C 73.902344 41.382812 73.824219 41.964844 73.820312 42.546875 C 73.839844 42.832031 73.824219 43.113281 73.886719 43.394531 C 73.972656 43.765625 73.277344 43.769531 73.347656 43.394531 Z M 73.347656 43.394531 " fill-opacity="1" fill-rule="nonzero"/><path fill="#3f7f00" d="M 79.667969 32.160156 C 80.054688 31.730469 80.285156 31.183594 80.570312 30.683594 C 81.003906 29.957031 81.492188 29.265625 81.992188 28.582031 C 82.394531 28.007812 82.84375 27.476562 83.300781 26.945312 C 83.554688 26.578125 83.886719 26.308594 84.230469 26.039062 C 84.644531 25.804688 84.863281 25.949219 85.253906 26.117188 C 85.582031 26.425781 85.902344 26.75 86.214844 27.074219 C 86.648438 27.707031 87.074219 28.335938 87.421875 29.023438 C 87.792969 29.75 88.167969 30.46875 88.445312 31.242188 C 88.710938 31.902344 88.925781 32.578125 89.125 33.257812 C 89.296875 33.703125 89.28125 34.1875 89.28125 34.648438 C 89.28125 34.828125 89.113281 34.863281 89.03125 34.703125 C 88.832031 34.308594 88.617188 33.890625 88.5 33.445312 C 88.289062 32.78125 88.089844 32.117188 87.882812 31.453125 C 87.605469 30.710938 87.335938 29.957031 86.972656 29.257812 C 86.625 28.617188 86.308594 27.945312 85.808594 27.40625 C 85.570312 27.078125 85.355469 26.746094 84.988281 26.542969 C 84.804688 26.484375 84.648438 26.347656 84.433594 26.414062 C 84.097656 26.613281 83.761719 26.816406 83.492188 27.117188 C 83.039062 27.636719 82.59375 28.164062 82.195312 28.730469 C 81.703125 29.40625 81.21875 30.089844 80.792969 30.8125 C 80.503906 31.316406 80.183594 31.820312 80.03125 32.382812 C 79.953125 32.671875 79.46875 32.386719 79.667969 32.164062 Z M 79.667969 32.160156 " fill-opacity="1" fill-rule="nonzero"/><path fill="#3f7f00" d="M 82.335938 43.101562 C 82.488281 42.769531 82.730469 42.492188 82.933594 42.1875 C 83.367188 41.515625 83.875 40.902344 84.347656 40.261719 C 84.917969 39.507812 85.578125 38.832031 86.179688 38.105469 C 86.699219 37.476562 87.261719 36.894531 87.847656 36.328125 C 88.265625 35.914062 88.699219 35.511719 89.128906 35.105469 C 89.394531 34.820312 89.734375 34.628906 90.058594 34.425781 C 90.671875 34.269531 90.859375 34.632812 90.953125 35.167969 C 91.125 35.683594 91.199219 36.21875 91.257812 36.765625 C 91.363281 37.542969 91.398438 38.324219 91.433594 39.109375 C 91.457031 39.65625 91.488281 40.203125 91.515625 40.75 C 91.523438 40.929688 91.269531 40.941406 91.261719 40.761719 C 91.234375 40.214844 91.199219 39.667969 91.179688 39.121094 C 91.144531 38.347656 91.117188 37.574219 90.996094 36.808594 C 90.863281 36.328125 90.753906 35.804688 90.503906 35.375 C 90.324219 35.40625 90.222656 35.347656 90.445312 35.386719 C 90.203125 35.519531 89.957031 35.648438 89.75 35.847656 C 89.285156 36.195312 88.828125 36.550781 88.375 36.914062 C 87.789062 37.433594 87.203125 37.949219 86.691406 38.546875 C 86.070312 39.238281 85.535156 39.996094 84.972656 40.734375 C 84.503906 41.339844 84.152344 42.011719 83.835938 42.707031 C 83.6875 43.015625 83.578125 43.339844 83.398438 43.628906 C 82.949219 44.332031 81.992188 43.863281 82.335938 43.101562 Z M 82.335938 43.101562 " fill-opacity="1" fill-rule="nonzero"/><path fill="#3f7f00" d="M 85.238281 47.261719 C 85.441406 46.96875 85.648438 46.6875 85.882812 46.421875 C 86.109375 46.058594 86.433594 45.8125 86.777344 45.578125 C 86.925781 45.476562 87.058594 45.644531 86.9375 45.777344 C 86.679688 46.058594 86.421875 46.34375 86.167969 46.628906 C 86.015625 46.90625 85.839844 47.175781 85.816406 47.496094 C 85.785156 47.9375 84.984375 47.621094 85.238281 47.261719 Z M 85.238281 47.261719 " fill-opacity="1" fill-rule="nonzero"/><path fill="#3f7f00" d="M 89.425781 46.871094 C 89.347656 46.6875 89.210938 46.546875 89.097656 46.386719 C 88.800781 46.121094 88.441406 45.980469 88.082031 45.816406 C 88 45.820312 87.914062 45.824219 87.832031 45.828125 C 87.652344 45.839844 87.640625 45.582031 87.820312 45.574219 C 87.914062 45.570312 88.011719 45.566406 88.105469 45.5625 C 88.628906 45.519531 89.082031 45.535156 89.527344 45.894531 C 89.761719 46.085938 89.988281 46.265625 90.09375 46.566406 C 90.265625 47.058594 89.625 47.351562 89.425781 46.871094 Z M 89.425781 46.871094 " fill-opacity="1" fill-rule="nonzero"/><path fill="#3f7f00" d="M 91.046875 42.453125 C 90.738281 42.746094 90.617188 43.203125 90.507812 43.613281 C 90.242188 44.707031 90.179688 45.851562 90.113281 46.972656 C 90.074219 47.5625 90.09375 48.15625 90.117188 48.75 C 90.125 48.929688 89.871094 48.9375 89.863281 48.757812 C 89.839844 48.15625 89.820312 47.554688 89.859375 46.957031 C 89.929688 45.816406 90.070312 44.6875 90.160156 43.550781 C 90.214844 43.003906 90.207031 42.433594 90.398438 41.910156 C 90.601562 41.347656 91.480469 42.042969 91.046875 42.453125 Z M 91.046875 42.453125 " fill-opacity="1" fill-rule="nonzero"/><path fill="#3f7f00" d="M 91.929688 42.300781 C 91.875 42.515625 91.917969 42.726562 91.925781 42.941406 C 91.933594 43.121094 91.734375 43.15625 91.675781 42.984375 C 91.609375 42.800781 91.609375 42.597656 91.4375 42.46875 C 91.140625 42.25 92.027344 41.941406 91.929688 42.300781 Z M 91.929688 42.300781 " fill-opacity="1" fill-rule="nonzero"/><path fill="#3f7f00" d="M 92.839844 43.484375 C 92.8125 43.09375 92.773438 42.742188 92.808594 42.351562 C 92.851562 41.8125 93.003906 41.277344 93.144531 40.753906 C 93.230469 40.285156 93.421875 39.867188 93.636719 39.449219 C 93.839844 39.105469 94.089844 38.859375 94.417969 38.652344 C 95.160156 38.570312 95.273438 39.058594 95.542969 39.644531 C 95.84375 40.527344 96.222656 41.375 96.523438 42.253906 C 96.585938 42.449219 96.644531 42.640625 96.707031 42.835938 C 96.761719 43.007812 96.519531 43.085938 96.464844 42.914062 C 96.402344 42.722656 96.34375 42.527344 96.28125 42.335938 C 95.992188 41.484375 95.71875 40.605469 95.09375 39.933594 C 94.972656 39.816406 94.414062 39.515625 94.773438 39.53125 C 94.65625 39.625 94.433594 39.707031 94.363281 39.90625 C 94.160156 40.238281 93.945312 40.566406 93.839844 40.949219 C 93.710938 41.445312 93.589844 41.9375 93.496094 42.4375 C 93.453125 42.792969 93.328125 43.125 93.332031 43.484375 C 93.335938 43.832031 92.863281 43.832031 92.839844 43.484375 Z M 92.839844 43.484375 " fill-opacity="1" fill-rule="nonzero"/><path fill="#3f7f00" d="M 90.574219 32.214844 C 90.902344 31.714844 91.292969 31.242188 91.613281 30.71875 C 92.160156 29.84375 92.683594 28.957031 93.207031 28.066406 C 93.578125 27.425781 93.996094 26.808594 94.40625 26.191406 C 94.695312 25.726562 95.066406 25.445312 95.554688 25.226562 C 96.171875 25.175781 96.503906 25.53125 96.875 25.972656 C 97.359375 26.496094 97.5625 27.164062 97.75 27.839844 C 98.023438 28.785156 98.25 29.75 98.382812 30.726562 C 98.558594 31.730469 98.574219 32.753906 98.617188 33.769531 C 98.648438 34.199219 98.589844 34.621094 98.574219 35.046875 C 98.570312 35.226562 98.316406 35.21875 98.320312 35.039062 C 98.335938 34.617188 98.300781 34.195312 98.324219 33.773438 C 98.351562 32.769531 98.265625 31.761719 98.121094 30.765625 C 97.953125 29.8125 97.816406 28.847656 97.507812 27.921875 C 97.253906 27.324219 96.902344 26.804688 96.523438 26.277344 C 96.257812 26.042969 96.046875 25.765625 95.675781 25.730469 C 95.261719 25.863281 94.929688 26.003906 94.65625 26.386719 C 94.191406 26.953125 93.785156 27.554688 93.425781 28.195312 C 92.902344 29.085938 92.375 29.976562 91.832031 30.855469 C 91.515625 31.363281 91.257812 31.902344 91.007812 32.429688 C 90.859375 32.738281 90.382812 32.5 90.574219 32.214844 Z M 90.574219 32.214844 " fill-opacity="1" fill-rule="nonzero"/><path fill="#3f7f00" d="M 97.796875 35.617188 C 98.214844 35.347656 98.523438 34.949219 98.859375 34.589844 C 99.1875 34.199219 99.46875 33.773438 99.78125 33.367188 C 99.984375 33.082031 100.257812 32.855469 100.523438 32.625 C 101.023438 32.480469 101.292969 32.59375 101.648438 32.917969 C 101.972656 33.429688 102.121094 33.984375 102.242188 34.566406 C 102.347656 35.566406 102.402344 36.566406 102.378906 37.570312 C 102.355469 38.773438 102.1875 39.960938 102.039062 41.152344 C 101.769531 42.472656 101.421875 43.769531 100.976562 45.039062 C 100.464844 46.246094 100.195312 47.542969 99.574219 48.695312 C 99.167969 49.15625 98.882812 49.621094 98.671875 50.191406 C 98.605469 50.359375 98.367188 50.269531 98.433594 50.101562 C 98.644531 49.535156 98.734375 48.996094 98.722656 48.382812 C 99 47.113281 99.65625 45.96875 100.007812 44.714844 C 100.394531 43.5 100.847656 42.289062 100.917969 41 C 101.078125 39.863281 101.152344 38.71875 101.175781 37.566406 C 101.15625 36.648438 101.144531 35.722656 100.902344 34.828125 C 100.808594 34.398438 100.726562 33.96875 100.671875 33.535156 C 100.707031 33.496094 100.851562 33.390625 100.84375 33.320312 C 100.625 33.421875 100.347656 33.519531 100.152344 33.730469 C 99.765625 34.050781 99.378906 34.375 99.050781 34.757812 C 98.75 35.121094 98.378906 35.457031 98.265625 35.925781 C 98.171875 36.316406 97.460938 35.832031 97.796875 35.617188 Z M 97.796875 35.617188 " fill-opacity="1" fill-rule="nonzero"/><path fill="#3f7f00" d="M 69.433594 34.75 C 69.625 34.222656 69.914062 33.722656 70.148438 33.203125 C 70.644531 32.109375 71.0625 30.980469 71.492188 29.859375 C 71.871094 28.875 72.191406 27.871094 72.585938 26.894531 C 72.792969 26.234375 73.035156 25.589844 73.320312 24.960938 C 73.542969 24.460938 73.871094 24.109375 74.300781 23.796875 C 75 23.433594 75.46875 23.773438 76.027344 24.203125 C 76.589844 24.804688 77.144531 25.417969 77.578125 26.117188 C 78.09375 26.914062 78.582031 27.738281 79.035156 28.570312 C 79.433594 29.328125 79.757812 30.121094 80.09375 30.90625 C 80.164062 31.074219 79.929688 31.171875 79.859375 31.007812 C 79.527344 30.230469 79.207031 29.445312 78.8125 28.695312 C 78.367188 27.875 77.855469 27.117188 77.152344 26.484375 C 76.570312 26.003906 76.078125 25.414062 75.433594 25.007812 C 75.25 24.917969 75.066406 24.808594 74.882812 24.730469 C 74.652344 24.953125 74.414062 25.148438 74.277344 25.453125 C 73.960938 26.03125 73.640625 26.613281 73.367188 27.214844 C 72.964844 28.183594 72.515625 29.136719 72.128906 30.113281 C 71.679688 31.199219 71.191406 32.296875 71.007812 33.460938 C 70.921875 33.976562 70.867188 34.496094 70.832031 35.011719 C 70.769531 36.019531 69.085938 35.699219 69.433594 34.75 Z M 69.433594 34.75 " fill-opacity="1" fill-rule="nonzero"/><path fill="#3f7f00" d="M 61.191406 31.441406 C 61.503906 31.1875 61.75 30.871094 62.007812 30.570312 C 62.347656 30.039062 62.667969 29.496094 63 28.957031 C 63.089844 28.796875 63.199219 28.648438 63.300781 28.492188 C 63.398438 28.339844 63.609375 28.484375 63.511719 28.632812 C 63.414062 28.789062 63.304688 28.933594 63.214844 29.09375 C 62.886719 29.628906 62.550781 30.160156 62.253906 30.714844 C 62.117188 31.082031 61.964844 31.445312 61.898438 31.835938 C 61.800781 32.398438 60.75 31.804688 61.191406 31.441406 Z M 61.191406 31.441406 " fill-opacity="1" fill-rule="nonzero"/><path fill="#3f7f00" d="M 67.332031 26.671875 C 67.707031 26.722656 68 26.949219 68.328125 27.128906 C 68.746094 27.40625 69.179688 27.660156 69.609375 27.917969 C 70.003906 28.128906 70.324219 28.417969 70.632812 28.730469 C 70.855469 29.011719 71.066406 29.261719 71.324219 29.492188 C 71.5 29.640625 71.648438 29.820312 71.800781 29.988281 L 71.65625 30.242188 C 71.558594 30.417969 71.625 30.339844 71.449219 30.441406 C 71.367188 30.488281 71.285156 30.539062 71.203125 30.585938 C 71.03125 30.421875 70.851562 30.253906 70.695312 30.074219 C 70.5 29.785156 70.289062 29.523438 70.050781 29.265625 C 69.785156 29.003906 69.519531 28.734375 69.214844 28.511719 C 68.824219 28.222656 68.4375 27.933594 67.976562 27.757812 C 67.691406 27.605469 67.40625 27.472656 67.117188 27.335938 C 66.671875 27.125 66.84375 26.605469 67.332031 26.671875 Z M 67.332031 26.671875 " fill-opacity="1" fill-rule="nonzero"/><g clip-path="url(#fc7e9c21bb)"><path fill="#3f7f00" d="M 85.277344 26.070312 C 85.605469 25.886719 85.871094 25.613281 86.148438 25.359375 C 86.65625 24.957031 87.066406 24.453125 87.507812 23.976562 C 87.796875 23.601562 88.121094 23.25 88.453125 22.910156 C 88.828125 22.550781 89.191406 22.550781 89.671875 22.582031 C 90.242188 22.808594 90.640625 23.308594 91.0625 23.734375 C 91.570312 24.308594 92.003906 24.941406 92.460938 25.554688 C 92.789062 26.03125 93.117188 26.496094 93.371094 27.011719 C 93.460938 27.234375 93.398438 27.464844 93.363281 27.691406 C 93.339844 27.871094 93.273438 27.882812 93.125 27.78125 C 92.960938 27.664062 92.777344 27.550781 92.660156 27.378906 C 92.382812 26.90625 92.167969 26.402344 91.878906 25.933594 C 91.511719 25.300781 91.121094 24.691406 90.605469 24.167969 C 90.273438 23.835938 89.972656 23.503906 89.5 23.367188 C 89.292969 23.378906 89.128906 23.28125 88.945312 23.484375 C 88.59375 23.765625 88.246094 24.054688 87.914062 24.363281 C 87.460938 24.820312 86.988281 25.261719 86.636719 25.808594 C 86.410156 26.109375 86.167969 26.410156 85.996094 26.75 C 85.679688 27.375 84.667969 26.414062 85.277344 26.070312 Z M 85.277344 26.070312 " fill-opacity="1" fill-rule="nonzero"/></g><path fill="#3f7f00" d="M 52.351562 32.695312 C 52.398438 32.324219 52.441406 31.949219 52.5 31.578125 C 52.585938 31.050781 52.65625 30.523438 52.699219 29.992188 C 52.726562 29.546875 52.898438 29.171875 53.128906 28.796875 C 53.5625 28.339844 53.972656 28.382812 54.527344 28.457031 C 55.125 28.628906 55.644531 28.898438 56.164062 29.230469 C 56.703125 29.675781 57.226562 30.128906 57.730469 30.613281 C 58.109375 30.921875 58.375 31.3125 58.625 31.722656 C 58.722656 31.875 58.566406 32.003906 58.429688 31.886719 C 58.078125 31.578125 57.746094 31.257812 57.460938 30.882812 C 56.988281 30.402344 56.535156 29.890625 55.957031 29.535156 C 55.5 29.246094 55.074219 28.90625 54.503906 28.984375 C 54.25 29.074219 53.988281 29.105469 53.796875 29.3125 C 53.660156 29.574219 53.464844 29.808594 53.4375 30.132812 C 53.300781 30.632812 53.210938 31.136719 53.167969 31.65625 C 53.140625 32.039062 53.085938 32.421875 53.03125 32.800781 C 52.960938 33.285156 52.285156 33.179688 52.351562 32.695312 Z M 52.351562 32.695312 " fill-opacity="1" fill-rule="nonzero"/><path fill="#3f7f00" d="M 73.015625 47.328125 C 73.214844 47.660156 73.246094 48.039062 73.285156 48.417969 C 73.398438 49.113281 73.449219 49.703125 73.125 50.34375 C 73.140625 50.472656 73.15625 50.601562 73.171875 50.726562 C 73.195312 50.90625 72.941406 50.9375 72.917969 50.757812 C 72.902344 50.628906 72.886719 50.503906 72.875 50.375 C 72.417969 49.84375 72.320312 49.273438 72.21875 48.597656 C 72.144531 48.207031 72.050781 47.824219 72.195312 47.441406 C 72.398438 46.890625 72.714844 46.824219 73.015625 47.328125 Z M 73.015625 47.328125 " fill-opacity="1" fill-rule="nonzero"/><path fill="#3f7f00" d="M 75.542969 46.699219 C 75.566406 47.171875 75.5 47.734375 75.5 48.242188 C 75.535156 48.867188 75.378906 49.453125 75.441406 50.074219 C 75.460938 50.253906 75.210938 50.28125 75.1875 50.101562 C 75.113281 49.476562 74.839844 48.917969 74.796875 48.28125 C 74.742188 47.792969 74.648438 47.257812 74.578125 46.804688 C 74.472656 46.125 75.507812 46.011719 75.542969 46.699219 Z M 75.542969 46.699219 " fill-opacity="1" fill-rule="nonzero"/><path fill="#3f7f00" d="M 78.265625 44.332031 C 78.3125 44.84375 78.203125 45.335938 78.121094 45.835938 C 78.089844 46.804688 77.683594 47.660156 77.414062 48.566406 C 77.363281 48.738281 77.195312 48.734375 77.160156 48.558594 C 76.964844 47.628906 76.675781 46.742188 76.757812 45.777344 C 76.722656 45.339844 76.65625 44.90625 76.621094 44.46875 C 76.535156 43.304688 78.167969 43.167969 78.265625 44.332031 Z M 78.265625 44.332031 " fill-opacity="1" fill-rule="nonzero"/><path fill="#3f7f00" d="M 80.074219 46.710938 C 80.003906 47.140625 79.902344 47.574219 79.839844 48.011719 C 79.78125 48.523438 79.609375 49 79.515625 49.503906 C 79.484375 49.679688 79.265625 49.660156 79.261719 49.480469 C 79.257812 48.960938 79.175781 48.457031 79.25 47.9375 C 79.296875 47.511719 79.316406 47.085938 79.320312 46.660156 C 79.324219 46.125 80.15625 46.183594 80.074219 46.710938 Z M 80.074219 46.710938 " fill-opacity="1" fill-rule="nonzero"/><path fill="#3f7f00" d="M 82.65625 45.59375 C 82.539062 46.207031 82.296875 46.835938 82.117188 47.449219 C 81.867188 48.273438 81.484375 48.996094 81.34375 49.851562 C 81.3125 50.027344 81.0625 49.984375 81.09375 49.808594 C 81.234375 48.964844 81.132812 48.152344 81.15625 47.304688 C 81.164062 46.691406 81.097656 46.074219 81.046875 45.480469 C 80.949219 44.34375 82.875 44.472656 82.65625 45.59375 Z M 82.65625 45.59375 " fill-opacity="1" fill-rule="nonzero"/><path fill="#3f7f00" d="M 86.734375 77.316406 C 87.066406 77.746094 87.445312 78.144531 87.8125 78.550781 C 88.722656 79.152344 89.632812 79.839844 90.402344 80.628906 C 91.324219 81.601562 92.234375 82.582031 93.15625 83.5625 C 93.898438 84.359375 94.851562 84.921875 95.738281 85.550781 C 96.632812 86.070312 97.585938 86.375 98.570312 86.65625 C 99.914062 86.960938 101.304688 86.988281 102.679688 86.992188 C 104.652344 86.933594 106.613281 86.753906 108.554688 86.410156 C 110.808594 86.035156 112.984375 85.324219 115.121094 84.523438 C 116.898438 83.832031 118.628906 83.023438 120.332031 82.160156 C 121.238281 81.664062 122.167969 81.195312 123.078125 80.703125 C 123.605469 80.414062 124.113281 80.210938 124.695312 80.132812 C 125.058594 80.316406 125.445312 80.421875 125.808594 80.5625 C 126.046875 80.65625 126.027344 80.632812 125.976562 80.882812 C 125.894531 81.269531 125.789062 81.664062 125.699219 82.058594 C 125.199219 82.523438 124.675781 82.824219 123.988281 82.984375 C 122.996094 83.261719 122.019531 83.585938 121.027344 83.871094 C 119.191406 84.453125 117.382812 85.121094 115.570312 85.777344 C 113.347656 86.535156 111.109375 87.246094 108.824219 87.789062 C 106.824219 88.226562 104.8125 88.652344 102.761719 88.796875 C 101.195312 88.9375 99.613281 89.039062 98.050781 88.761719 C 96.808594 88.492188 95.570312 88.035156 94.566406 87.238281 C 93.558594 86.484375 92.664062 85.699219 91.886719 84.699219 C 91.019531 83.683594 90.210938 82.628906 89.347656 81.617188 C 88.625 80.808594 87.976562 79.929688 87.289062 79.105469 C 86.851562 78.738281 86.421875 78.363281 85.988281 78 C 85.4375 77.539062 86.300781 76.746094 86.734375 77.316406 Z M 86.734375 77.316406 " fill-opacity="1" fill-rule="nonzero"/><path fill="#3f7f00" d="M 100.78125 69.582031 C 101.78125 69.703125 102.773438 69.570312 103.757812 69.410156 C 106.183594 69.117188 108.496094 68.308594 110.785156 67.507812 C 113.351562 66.621094 115.863281 65.589844 118.328125 64.457031 C 119.980469 63.605469 121.519531 62.566406 123.042969 61.503906 C 124.011719 60.828125 124.988281 60.160156 125.925781 59.4375 C 126.609375 58.917969 127.21875 58.316406 127.800781 57.6875 C 128.132812 57.351562 128.382812 56.980469 128.625 56.582031 C 128.648438 56.484375 128.628906 56.382812 128.628906 56.28125 C 128.757812 56.304688 127.960938 56.035156 127.824219 55.996094 C 126.445312 55.75 125.027344 55.804688 123.628906 55.890625 C 121.710938 55.976562 119.804688 56.269531 117.898438 56.535156 C 116.054688 56.835938 114.210938 57.121094 112.371094 57.441406 C 112.117188 57.484375 112.058594 57.128906 112.308594 57.085938 C 114.152344 56.765625 116.003906 56.476562 117.851562 56.179688 C 119.761719 55.910156 121.675781 55.683594 123.59375 55.449219 C 125.042969 55.285156 126.484375 55.039062 127.9375 54.894531 C 128.78125 54.929688 129.578125 54.882812 130.097656 55.648438 C 130.207031 56.214844 130.265625 56.660156 129.945312 57.175781 C 129.652344 57.742188 129.378906 58.332031 128.910156 58.773438 C 128.21875 59.394531 127.503906 60.011719 126.722656 60.535156 C 125.699219 61.199219 124.703125 61.902344 123.601562 62.445312 C 121.929688 63.300781 120.210938 64.0625 118.476562 64.785156 C 116.003906 65.921875 113.480469 66.957031 110.90625 67.847656 C 108.589844 68.65625 106.277344 69.46875 103.988281 70.359375 C 102.945312 70.695312 101.933594 71.109375 100.898438 71.453125 C 99.640625 71.871094 99.46875 69.425781 100.78125 69.582031 Z M 100.78125 69.582031 " fill-opacity="1" fill-rule="nonzero"/><path fill="#3f7f00" d="M 81.984375 78.726562 C 81.464844 78.640625 80.992188 78.816406 80.5 78.957031 C 79.691406 79.597656 79.816406 79.007812 79.585938 78.984375 C 80.09375 79.199219 80.652344 79.105469 81.1875 79.074219 C 81.917969 78.898438 82.132812 78.808594 82.742188 79.078125 C 82.683594 79.585938 82.371094 79.992188 82.148438 80.453125 C 82.65625 81.199219 82.546875 82.160156 82.699219 83.132812 C 82.78125 84.328125 83.03125 85.46875 82.839844 86.664062 C 82.476562 88.953125 82.242188 91.257812 81.996094 93.5625 C 81.757812 97.179688 81.445312 100.792969 81.328125 104.417969 C 81.1875 107.976562 81.203125 111.542969 81.0625 115.105469 C 81.183594 116.804688 80.746094 118.445312 80.558594 120.113281 C 80.527344 120.367188 80.21875 120.363281 80.195312 120.109375 C 80.050781 118.429688 79.675781 116.773438 79.898438 115.074219 C 79.949219 111.507812 80.175781 107.949219 80.230469 104.382812 C 80.324219 100.757812 80.261719 97.125 80.253906 93.496094 C 80.171875 91.148438 80.097656 88.796875 80.046875 86.449219 C 80.042969 85.257812 80.5 84.25 80.726562 83.09375 C 80.804688 82 80.910156 81.121094 81.535156 80.304688 C 81.578125 80.117188 81.796875 78.804688 81.863281 79.410156 C 81.648438 79.417969 81.429688 79.449219 81.214844 79.433594 C 80.507812 79.476562 79.765625 79.589844 79.101562 79.308594 C 78.585938 78.355469 79.460938 78.335938 80.199219 78.046875 C 80.730469 77.867188 81.269531 77.695312 81.773438 77.453125 C 82.597656 77.054688 82.886719 78.878906 81.984375 78.726562 Z M 81.984375 78.726562 " fill-opacity="1" fill-rule="nonzero"/><g clip-path="url(#67f260f190)"><path fill="#3f7f00" d="M 77.914062 118.402344 C 80.207031 118.207031 82.238281 116.617188 84.214844 115.53125 C 90.101562 112.351562 96.339844 109.917969 102.628906 107.667969 C 110.265625 104.980469 118.1875 103.359375 126.210938 102.40625 C 131.652344 101.863281 137.152344 102.132812 142.574219 102.765625 C 146.890625 103.4375 146.480469 106.820312 143.617188 109.117188 C 142.375 109.847656 141.257812 110.847656 140.402344 112.003906 C 139.566406 108.625 141.539062 110.839844 143.585938 112.019531 C 146.085938 113.222656 148.167969 114.738281 149.34375 117.285156 C 150.007812 120.394531 147.742188 122.101562 145.359375 123.519531 C 142.027344 125.117188 138.417969 126.03125 134.8125 126.765625 C 129.421875 127.519531 124.003906 127.492188 118.585938 127.242188 C 111.472656 126.773438 104.382812 126.003906 97.28125 125.363281 C 91.214844 124.765625 85.121094 124.519531 79.027344 124.375 C 76.570312 124.289062 73.839844 124.199219 71.742188 125.449219 C 72.839844 122.984375 72.765625 123.835938 75.648438 124.796875 C 80.132812 126.1875 84.828125 126.605469 89.496094 126.796875 C 95.175781 126.976562 100.859375 126.925781 106.539062 126.933594 C 111.542969 126.957031 116.546875 127.015625 121.550781 126.953125 C 123.726562 126.929688 125.902344 126.839844 128.078125 126.757812 C 128.4375 126.742188 128.457031 127.253906 128.097656 127.265625 C 125.917969 127.351562 123.738281 127.441406 121.554688 127.464844 C 116.550781 127.527344 111.546875 127.464844 106.539062 127.445312 C 100.851562 127.4375 95.160156 127.488281 89.472656 127.304688 C 84.734375 127.109375 79.996094 126.996094 75.261719 126.703125 C 73.59375 126.558594 66.976562 125.71875 71.171875 123.09375 C 73.78125 123.46875 76.390625 123.945312 79.039062 123.867188 C 85.144531 124.011719 91.246094 124.253906 97.328125 124.855469 C 104.421875 125.496094 111.503906 126.265625 118.609375 126.734375 C 123.9375 126.980469 129.402344 127.28125 134.605469 125.875 C 137.988281 124.972656 141.253906 123.738281 144.050781 121.570312 C 145.179688 120.695312 146.277344 119.792969 146.433594 118.292969 C 145.800781 116.363281 144.519531 115.164062 142.5625 114.375 C 139.863281 113.582031 136.847656 114.050781 136.640625 110.523438 C 137.972656 108.878906 140.128906 108.398438 141.664062 106.921875 C 142.75 105.777344 143.671875 106.148438 142.007812 104.550781 C 137.203125 101.832031 131.589844 102.546875 126.269531 102.914062 C 118.285156 103.859375 110.398438 105.472656 102.800781 108.148438 C 96.539062 110.390625 90.324219 112.8125 84.460938 115.980469 C 82.375 117.121094 80.140625 118.113281 78.351562 119.695312 C 77.628906 120.335938 76.949219 118.484375 77.914062 118.402344 Z M 77.914062 118.402344 " fill-opacity="1" fill-rule="nonzero"/></g><path fill="#3f7f00" d="M 76.179688 117.96875 C 75.859375 116.222656 75 114.644531 74.203125 113.058594 C 71.480469 108.832031 67.097656 106.039062 62.910156 103.425781 C 56.488281 99.621094 49.4375 97.164062 42.308594 95.089844 C 34.941406 93.042969 27.359375 92.085938 19.734375 91.890625 C 14.9375 92.097656 9.300781 91.988281 5.605469 95.492188 C 3.511719 98.757812 5.488281 101.777344 7.808594 104.277344 C 12.96875 108.753906 19.355469 111.277344 25.71875 113.515625 C 31.472656 115.28125 37.511719 116.882812 43.554688 115.992188 C 45.941406 115.230469 47.460938 114.050781 46.511719 111.601562 C 44.210938 107.421875 39.492188 106.269531 35.21875 105.136719 C 28.910156 103.625 22.441406 103.421875 16.003906 103.847656 C 11.863281 104.46875 6.75 104.648438 3.863281 108.089844 C 2.527344 110.660156 4.726562 112.726562 6.492188 114.40625 C 11.851562 117.75 18.074219 119.214844 24.160156 120.601562 C 31.9375 122.292969 39.878906 122.761719 47.8125 122.777344 C 53.8125 122.742188 59.785156 122.164062 65.726562 121.363281 C 66.082031 121.316406 66.152344 121.820312 65.792969 121.871094 C 59.832031 122.671875 53.835938 123.253906 47.808594 123.289062 C 39.839844 123.269531 31.859375 122.800781 24.046875 121.097656 C 17.890625 119.695312 11.601562 118.207031 6.183594 114.816406 C 3.410156 113.132812 0 110.386719 3.109375 107.203125 C 7.011719 104.8125 11.429688 103.722656 15.96875 103.339844 C 22.464844 102.910156 28.988281 103.117188 35.347656 104.640625 C 39.972656 105.871094 44.988281 107.3125 48.519531 110.6875 C 50.503906 114.742188 47.664062 116.875 43.617188 116.808594 C 37.453125 116.859375 31.394531 116.074219 25.550781 113.996094 C 19.117188 111.730469 12.65625 109.171875 7.441406 104.632812 C 4.664062 101.898438 1.132812 98.230469 5.070312 94.777344 C 9.566406 92.113281 14.539062 91.292969 19.746094 91.382812 C 27.417969 91.582031 35.042969 92.539062 42.453125 94.597656 C 49.625 96.6875 56.722656 99.164062 63.183594 102.992188 C 67.503906 105.691406 71.542969 108.71875 75.046875 112.449219 C 76.445312 113.875 77.835938 115.480469 78.5625 117.347656 C 79.195312 118.96875 76.496094 119.679688 76.183594 117.96875 Z M 76.179688 117.96875 " fill-opacity="1" fill-rule="nonzero"/></svg>