<svg xmlns="http://www.w3.org/2000/svg" xmlns:xlink="http://www.w3.org/1999/xlink" width="200" zoomAndPan="magnify" viewBox="0 0 150 149.999998" height="200" preserveAspectRatio="xMidYMid meet" version="1.0"><defs><clipPath id="3365f213a5"><path d="M 85 22.542969 L 94 22.542969 L 94 28 L 85 28 Z M 85 22.542969 " clip-rule="nonzero"/></clipPath><clipPath id="ec49f399f2"><path d="M 69 102 L 150 102 L 150 127.542969 L 69 127.542969 Z M 69 102 " clip-rule="nonzero"/></clipPath></defs><path fill="#809dff" d="M 74.195312 76.496094 C 73.628906 76.34375 73.058594 76.515625 72.492188 76.609375 C 71.390625 76.835938 70.316406 77.164062 69.230469 77.457031 C 68.074219 77.78125 67.078125 78.414062 66.066406 79.042969 C 65.289062 79.613281 64.714844 80.328125 64.179688 81.109375 C 63.558594 82.128906 63.21875 83.28125 62.902344 84.421875 C 62.480469 85.847656 62.273438 87.328125 62.03125 88.796875 C 61.824219 90.304688 61.566406 91.804688 61.320312 93.308594 C 61.171875 94.609375 60.890625 95.886719 60.558594 97.15625 C 60.277344 98.144531 59.945312 99.117188 59.664062 100.109375 C 59.414062 100.636719 59.191406 101.183594 58.957031 101.703125 C 58.855469 102.027344 58.691406 102.332031 58.558594 102.632812 C 58.882812 101.832031 58.445312 101.53125 57.617188 101.289062 C 57.574219 101.390625 58.046875 101.074219 58.171875 101.011719 C 58.855469 100.390625 59.523438 99.761719 60.144531 99.078125 C 61.023438 98.089844 62.035156 97.226562 63.0625 96.394531 C 64.007812 95.632812 65.015625 94.941406 66.007812 94.242188 C 67.117188 93.503906 68.21875 92.753906 69.242188 91.894531 C 70.585938 90.714844 71.671875 89.328125 72.742188 87.910156 C 73.640625 86.519531 74.320312 85.023438 74.929688 83.492188 C 75.457031 82.222656 75.917969 80.929688 76.375 79.632812 C 76.953125 79.0625 76.828125 78.46875 76.976562 77.855469 C 77.0625 77.503906 77.339844 77.4375 77.480469 77.769531 C 77.765625 78.460938 77.984375 79.191406 78.28125 79.902344 C 78.332031 81.539062 77.859375 83.035156 77.128906 84.492188 C 76.316406 86.078125 75.527344 87.699219 74.476562 89.148438 C 73.402344 90.730469 72.128906 92.1875 70.792969 93.554688 C 69.765625 94.609375 68.746094 95.679688 67.484375 96.457031 C 66.507812 97.0625 65.519531 97.660156 64.589844 98.34375 C 63.640625 99.128906 62.722656 99.933594 61.878906 100.832031 C 61.050781 101.542969 60.269531 102.328125 59.257812 102.789062 C 58.800781 103.046875 58.347656 103.355469 57.828125 103.453125 C 56.675781 103.167969 56.421875 102.714844 56.800781 101.695312 C 56.941406 101.457031 57.09375 101.183594 57.246094 100.933594 C 57.445312 100.425781 57.6875 99.914062 57.847656 99.378906 C 58.300781 98.519531 58.675781 97.632812 58.972656 96.707031 C 59.316406 95.492188 59.660156 94.28125 59.90625 93.042969 C 60.203125 91.558594 60.449219 90.066406 60.699219 88.570312 C 60.957031 87.0625 61.273438 85.570312 61.570312 84.066406 C 61.933594 82.796875 62.253906 81.515625 62.867188 80.332031 C 63.484375 79.320312 64.082031 78.316406 65.140625 77.699219 C 66.230469 76.960938 67.359375 76.3125 68.535156 75.726562 C 69.621094 75.183594 70.722656 74.695312 71.882812 74.324219 C 72.597656 74.082031 73.324219 73.863281 74.050781 73.652344 C 75.984375 73.089844 76.136719 77.03125 74.191406 76.5 Z M 74.195312 76.496094 " fill-opacity="1" fill-rule="nonzero"/><path fill="#809dff" d="M 77.796875 75.109375 C 78.253906 75.128906 78.710938 75.296875 79.15625 75.4375 C 80 75.65625 80.847656 75.828125 81.707031 75.964844 C 82.746094 76.246094 83.828125 76.292969 84.890625 76.332031 C 85.847656 76.363281 86.78125 76.261719 87.71875 76.097656 C 88.824219 75.910156 89.820312 75.398438 90.828125 74.929688 C 91.78125 74.425781 92.609375 73.777344 93.410156 73.070312 C 93.867188 72.695312 94.105469 72.167969 94.382812 71.703125 C 94.578125 71.503906 94.46875 71.246094 94.507812 71.039062 C 94.503906 70.949219 94.472656 70.890625 94.453125 70.804688 C 94.417969 70.738281 94.5 70.941406 94.527344 71.011719 C 94.621094 71.066406 94.734375 71.070312 94.839844 71.101562 C 94.179688 71.070312 93.507812 71.257812 92.859375 71.398438 C 91.695312 71.71875 90.519531 71.992188 89.351562 72.300781 C 88.207031 72.574219 87.066406 72.839844 85.914062 73.089844 C 84.726562 73.527344 83.558594 73.667969 82.375 73.582031 C 81.128906 73.875 79.859375 74.03125 78.589844 74.179688 C 78.230469 74.222656 78.175781 73.714844 78.53125 73.671875 C 79.78125 73.523438 81.035156 73.375 82.261719 73.085938 C 83.261719 72.492188 84.382812 72.0625 85.613281 71.863281 C 86.753906 71.570312 87.910156 71.351562 89.0625 71.105469 C 90.214844 70.835938 91.34375 70.511719 92.445312 70.0625 C 93.164062 69.785156 93.890625 69.519531 94.621094 69.277344 C 95.195312 69.191406 95.554688 69.066406 96.054688 69.480469 C 96.199219 69.75 96.492188 69.980469 96.480469 70.316406 C 96.503906 70.605469 96.597656 70.890625 96.554688 71.191406 C 96.449219 71.667969 96.351562 72.144531 96.140625 72.585938 C 95.644531 73.242188 95.195312 73.925781 94.453125 74.347656 C 93.5 75.019531 92.523438 75.664062 91.457031 76.152344 C 90.351562 76.75 89.238281 77.347656 88.019531 77.683594 C 86.953125 77.820312 85.894531 77.886719 84.824219 77.746094 C 83.699219 77.660156 82.566406 77.5625 81.441406 77.441406 C 80.570312 77.242188 79.699219 77.054688 78.820312 76.902344 C 78.285156 76.789062 77.742188 76.726562 77.289062 76.394531 C 76.507812 75.8125 76.824219 75.070312 77.796875 75.109375 Z M 77.796875 75.109375 " fill-opacity="1" fill-rule="nonzero"/><path fill="#809dff" d="M 98.628906 69.699219 C 99.675781 69.816406 100.570312 69.542969 101.636719 69.570312 C 103.441406 69.785156 105.238281 70.003906 107.039062 70.25 C 109.160156 70.695312 111.152344 71.558594 113.203125 72.242188 C 115.023438 73.050781 116.882812 73.765625 118.6875 74.613281 C 119.867188 75.03125 120.929688 75.695312 122.042969 76.257812 C 122.714844 76.46875 123.226562 76.933594 123.757812 77.375 C 124.484375 78.0625 124.695312 78.675781 124.574219 79.699219 C 124 80.84375 123.464844 80.675781 122.308594 80.308594 C 121.96875 80.195312 122.09375 80.25 122 79.902344 C 121.941406 79.695312 121.636719 78.066406 121.285156 78.933594 C 121.300781 79.0625 121.5 80.332031 121.40625 79.683594 C 121.082031 79.351562 120.773438 78.984375 120.425781 78.671875 C 119.546875 77.917969 118.617188 77.234375 117.691406 76.539062 C 116.003906 75.585938 114.304688 74.664062 112.488281 73.980469 C 110.640625 73.066406 108.691406 72.378906 106.691406 71.882812 C 105.011719 71.382812 103.328125 71.179688 101.566406 71.277344 C 100.550781 71.238281 99.695312 70.882812 98.707031 71.113281 C 97.730469 71.34375 97.632812 69.585938 98.632812 69.699219 Z M 98.628906 69.699219 " fill-opacity="1" fill-rule="nonzero"/><path fill="#809dff" d="M 78.546875 70.480469 C 78.78125 70.070312 79.125 69.726562 79.386719 69.320312 C 79.699219 68.886719 79.894531 68.390625 80.09375 67.898438 C 80.25 67.425781 80.355469 66.945312 80.476562 66.460938 C 80.59375 65.957031 80.539062 65.449219 80.484375 64.941406 C 80.347656 64.25 80.078125 63.597656 79.847656 62.933594 C 79.445312 62.09375 79.105469 61.230469 78.636719 60.421875 C 78.207031 59.519531 77.539062 58.757812 76.90625 57.992188 C 76.242188 57.195312 75.390625 56.597656 74.636719 55.898438 C 73.933594 55.296875 73.214844 54.722656 72.464844 54.183594 C 71.988281 53.816406 71.460938 53.523438 70.957031 53.195312 C 70.671875 53.066406 70.429688 52.882812 70.164062 52.726562 C 70.027344 52.695312 69.898438 52.667969 69.761719 52.636719 C 69.691406 52.285156 69.59375 52.441406 69.339844 52.375 C 69.089844 52.542969 68.902344 52.773438 68.730469 53.015625 C 68.476562 53.457031 68.289062 53.925781 68.101562 54.394531 C 67.863281 54.980469 67.785156 55.613281 67.710938 56.234375 C 67.65625 56.988281 67.625 57.75 67.648438 58.503906 C 67.695312 59.441406 67.847656 60.375 68.023438 61.296875 C 68.253906 62.292969 68.582031 63.261719 68.886719 64.234375 C 69.28125 65.183594 69.675781 66.125 70.160156 67.03125 C 70.671875 67.847656 71.101562 68.710938 71.691406 69.476562 C 72.328125 70.3125 73.066406 71.097656 73.882812 71.757812 C 74.46875 72.191406 74.886719 72.761719 75.519531 73.125 C 75.675781 73.214844 75.550781 73.4375 75.394531 73.347656 C 74.75 72.976562 74 72.808594 73.449219 72.277344 C 72.601562 71.542969 71.722656 70.847656 71.03125 69.953125 C 70.464844 69.128906 69.910156 68.285156 69.519531 67.355469 C 69.058594 66.410156 68.585938 65.453125 68.28125 64.445312 C 67.910156 63.464844 67.664062 62.441406 67.484375 61.410156 C 67.269531 60.453125 67.070312 59.5 67.035156 58.519531 C 67.015625 57.730469 67.003906 56.949219 67.125 56.164062 C 67.230469 55.5 67.328125 54.839844 67.53125 54.191406 C 67.710938 53.679688 67.890625 53.167969 68.160156 52.695312 C 68.34375 52.316406 68.480469 51.929688 68.835938 51.65625 C 69.140625 51.359375 69.441406 51.070312 69.796875 50.835938 C 70.175781 50.84375 70.539062 50.835938 70.886719 51.023438 C 71.296875 51.175781 71.675781 51.351562 71.996094 51.65625 C 72.527344 52.035156 73.019531 52.453125 73.511719 52.878906 C 74.222656 53.507812 74.929688 54.144531 75.617188 54.800781 C 76.441406 55.511719 77.175781 56.324219 77.917969 57.121094 C 78.648438 57.933594 79.277344 58.816406 79.886719 59.71875 C 80.355469 60.578125 80.851562 61.4375 81.199219 62.355469 C 81.570312 63.089844 81.894531 63.851562 82.082031 64.652344 C 82.207031 65.367188 82.285156 66.066406 82.117188 66.789062 C 82 67.410156 81.859375 68.019531 81.542969 68.578125 C 81.234375 69.121094 80.90625 69.652344 80.5 70.132812 C 80.1875 70.5 79.933594 70.941406 79.585938 71.25 C 78.898438 71.855469 78.09375 71.273438 78.546875 70.480469 Z M 78.546875 70.480469 " fill-opacity="1" fill-rule="nonzero"/><path fill="#809dff" d="M 87.359375 70.296875 C 87.738281 70.277344 88.109375 70.140625 88.480469 70.007812 C 89.484375 69.554688 90.210938 68.6875 90.894531 67.851562 C 91.933594 66.425781 92.648438 64.816406 93.300781 63.1875 C 93.949219 61.515625 94.441406 59.792969 94.902344 58.058594 C 95.265625 56.648438 95.523438 55.210938 95.75 53.773438 C 95.925781 52.640625 96.007812 51.496094 95.980469 50.351562 C 95.980469 49.496094 95.835938 48.65625 95.695312 47.816406 C 95.558594 47.175781 95.367188 46.546875 95.164062 45.925781 C 95.085938 45.546875 94.878906 45.257812 94.660156 44.960938 C 94.59375 44.851562 94.488281 44.769531 94.402344 44.675781 C 94.773438 44.425781 93.933594 44.757812 93.824219 44.808594 C 93.042969 45.355469 92.429688 46.074219 91.855469 46.828125 C 90.980469 48.070312 90.332031 49.441406 89.671875 50.800781 C 88.828125 52.523438 88.085938 54.289062 87.410156 56.082031 C 86.6875 58.027344 86.078125 60.015625 85.5625 62.027344 C 85.09375 63.941406 84.734375 65.878906 84.542969 67.839844 C 84.382812 68.640625 84.421875 69.449219 84.464844 70.257812 C 84.472656 70.4375 84.21875 70.449219 84.210938 70.269531 C 84.167969 69.445312 84.148438 68.625 84.144531 67.800781 C 84.339844 65.816406 84.679688 63.855469 85.28125 61.949219 C 85.871094 59.953125 86.429688 57.941406 87.171875 55.992188 C 87.851562 54.191406 88.554688 52.398438 89.433594 50.6875 C 90.117188 49.320312 90.769531 47.9375 91.457031 46.574219 C 91.945312 45.667969 92.480469 44.796875 93.207031 44.0625 C 93.726562 43.484375 94.230469 42.878906 95.085938 43.023438 C 95.550781 43.257812 95.910156 43.507812 96.210938 43.949219 C 96.457031 44.4375 96.667969 44.933594 96.796875 45.464844 C 96.945312 46.164062 97.085938 46.867188 97.191406 47.574219 C 97.316406 48.5 97.394531 49.433594 97.351562 50.367188 C 97.296875 51.585938 97.195312 52.800781 96.941406 53.996094 C 96.625 55.449219 96.199219 56.878906 95.769531 58.300781 C 95.257812 60.050781 94.726562 61.789062 94.070312 63.492188 C 93.410156 65.191406 92.703125 66.886719 91.78125 68.464844 C 91.113281 69.601562 90.363281 70.65625 89.261719 71.417969 C 88.785156 71.722656 88.28125 72.078125 87.726562 72.179688 C 86.390625 72.417969 86.003906 70.363281 87.359375 70.296875 Z M 87.359375 70.296875 " fill-opacity="1" fill-rule="nonzero"/><path fill="#809dff" d="M 92.640625 69.402344 C 93.128906 69.191406 93.585938 68.851562 94.015625 68.53125 C 95.039062 67.714844 95.949219 66.765625 96.839844 65.804688 C 97.785156 64.738281 98.632812 63.59375 99.421875 62.410156 C 100.128906 61.285156 100.828125 60.164062 101.484375 59.011719 C 102.09375 57.988281 102.675781 56.96875 103.046875 55.832031 C 103.101562 55.652344 103.152344 55.472656 103.207031 55.292969 C 103.257812 55.117188 103.5 55.191406 103.449219 55.363281 C 103.398438 55.546875 103.34375 55.726562 103.289062 55.910156 C 102.914062 57.058594 102.601562 58.242188 102.054688 59.320312 C 101.445312 60.519531 100.765625 61.699219 99.96875 62.785156 C 99.136719 63.972656 98.332031 65.1875 97.378906 66.28125 C 96.515625 67.300781 95.582031 68.253906 94.71875 69.269531 C 94.304688 69.765625 93.914062 70.285156 93.441406 70.730469 C 92.644531 71.476562 91.640625 69.839844 92.640625 69.402344 Z M 92.640625 69.402344 " fill-opacity="1" fill-rule="nonzero"/><path fill="#809dff" d="M 104.644531 46.632812 C 104.585938 46.394531 104.714844 46.039062 104.785156 45.761719 C 104.890625 45.308594 104.898438 44.851562 104.875 44.390625 C 104.902344 44.011719 104.835938 43.640625 104.792969 43.265625 C 104.8125 43.140625 104.695312 42.917969 104.683594 42.871094 C 105.011719 43.078125 104.683594 42.855469 104.652344 43.03125 C 103.984375 43.542969 103.535156 44.273438 103.105469 44.984375 C 102.296875 46.304688 101.433594 47.589844 100.574219 48.875 C 99.621094 50.277344 98.648438 51.667969 97.714844 53.082031 C 96.777344 54.488281 95.894531 55.929688 95.074219 57.40625 C 94.984375 57.5625 94.761719 57.441406 94.851562 57.28125 C 95.675781 55.800781 96.558594 54.355469 97.5 52.941406 C 98.4375 51.527344 99.410156 50.136719 100.363281 48.734375 C 101.21875 47.449219 102.082031 46.167969 102.886719 44.851562 C 103.347656 44.089844 103.703125 43.265625 104.207031 42.53125 C 104.601562 42.117188 104.898438 41.929688 105.40625 42.304688 C 105.5625 42.59375 105.71875 42.839844 105.683594 43.207031 C 105.679688 43.609375 105.660156 44.015625 105.660156 44.421875 C 105.589844 44.902344 105.535156 45.382812 105.5 45.867188 C 105.484375 46.179688 105.511719 46.574219 105.359375 46.8125 C 105.078125 47.253906 104.765625 47.140625 104.644531 46.632812 Z M 104.644531 46.632812 " fill-opacity="1" fill-rule="nonzero"/><path fill="#809dff" d="M 99.097656 65.667969 C 99.398438 64.992188 99.953125 64.527344 100.441406 64 C 101.589844 62.78125 102.429688 61.332031 103.449219 60.019531 C 104.769531 58.433594 106.023438 56.796875 107.222656 55.121094 C 108.488281 53.257812 109.835938 51.421875 110.808594 49.390625 C 111.585938 47.78125 112.136719 46.089844 112.601562 44.367188 C 113.023438 43 113.328125 41.597656 113.652344 40.203125 C 113.835938 39.160156 113.980469 38.117188 114.027344 37.0625 C 114.117188 36.5 113.953125 35.980469 113.8125 35.464844 C 113.738281 35.289062 113.570312 35.230469 113.433594 35.125 C 113.414062 35.0625 113.183594 35.175781 113.074219 35.199219 C 111.875 35.597656 110.996094 36.289062 110.195312 37.25 C 109.445312 38.246094 109.820312 37.726562 109.082031 38.8125 C 108.980469 38.960938 108.769531 38.816406 108.871094 38.667969 C 109.617188 37.570312 109.238281 38.09375 110 37.085938 C 110.847656 36.070312 111.460938 34.902344 112.355469 33.9375 C 113.0625 33.425781 113.753906 33.253906 114.535156 33.71875 C 114.941406 34.117188 115.28125 34.519531 115.382812 35.101562 C 115.421875 35.828125 115.386719 36.511719 115.203125 37.222656 C 114.960938 38.285156 114.683594 39.335938 114.363281 40.375 C 114.007812 41.777344 113.597656 43.160156 113.242188 44.5625 C 112.667969 46.277344 111.972656 47.953125 111.105469 49.542969 C 110.003906 51.53125 109.039062 53.597656 107.761719 55.488281 C 106.621094 57.222656 105.390625 58.890625 104.128906 60.539062 C 103.125 61.863281 102.003906 63.109375 101.144531 64.542969 C 100.746094 65.160156 100.414062 65.808594 99.808594 66.257812 C 99.285156 66.648438 98.828125 66.265625 99.097656 65.667969 Z M 99.097656 65.667969 " fill-opacity="1" fill-rule="nonzero"/><path fill="#809dff" d="M 73.671875 74.242188 C 73.085938 74.054688 72.5 73.871094 71.90625 73.703125 C 70.320312 73.234375 68.773438 72.648438 67.234375 72.035156 C 65.050781 71.339844 63.015625 70.328125 61.105469 69.078125 C 59.082031 67.683594 57.433594 65.867188 55.886719 63.980469 C 54.613281 62.425781 53.503906 60.75 52.433594 59.050781 C 51.839844 58.054688 51.445312 56.96875 51 55.902344 C 50.773438 55.433594 50.582031 54.949219 50.371094 54.46875 C 50.253906 54.246094 50.136719 54.035156 50.011719 53.816406 C 49.867188 53.097656 50.292969 52.878906 50.941406 52.898438 C 51.5625 53.144531 52.140625 53.484375 52.773438 53.699219 C 53.945312 54.226562 55.179688 54.597656 56.398438 54.996094 C 58.125 55.722656 59.753906 56.65625 61.304688 57.703125 C 62.886719 58.644531 64.335938 59.753906 65.707031 60.976562 C 66.382812 61.71875 66.964844 62.527344 67.628906 63.285156 C 67.746094 63.421875 67.554688 63.589844 67.4375 63.453125 C 66.777344 62.699219 66.054688 62.078125 65.253906 61.484375 C 63.914062 60.28125 62.5 59.160156 61.046875 58.101562 C 59.496094 57.128906 57.96875 56.09375 56.222656 55.496094 C 55.019531 55.035156 53.761719 54.75 52.503906 54.476562 C 51.9375 54.277344 51.34375 54.121094 50.742188 54.078125 C 50.914062 53.953125 51.355469 53.832031 51.21875 53.421875 C 51.277344 53.601562 51.328125 53.871094 51.414062 54.070312 C 51.570312 54.589844 51.703125 55.125 51.746094 55.671875 C 51.96875 56.769531 52.359375 57.820312 52.828125 58.835938 C 53.664062 60.652344 54.828125 62.269531 56.082031 63.820312 C 57.613281 65.683594 59.246094 67.484375 61.246094 68.863281 C 63.132812 70.101562 65.144531 71.125 67.320312 71.769531 C 68.894531 72.148438 70.488281 72.523438 72.105469 72.625 C 72.628906 72.671875 73.179688 72.777344 73.699219 72.667969 C 74.789062 72.445312 74.730469 74.585938 73.671875 74.242188 Z M 73.671875 74.242188 " fill-opacity="1" fill-rule="nonzero"/><path fill="#809dff" d="M 72.234375 74.15625 C 71.828125 74.34375 71.375 74.40625 70.929688 74.457031 C 69.832031 74.558594 68.734375 74.652344 67.632812 74.664062 C 65.820312 74.664062 64.003906 74.628906 62.1875 74.636719 C 59.882812 74.667969 57.59375 74.496094 55.300781 74.351562 C 52.746094 74.171875 50.21875 73.804688 47.714844 73.269531 C 45.207031 72.742188 42.773438 71.960938 40.347656 71.140625 C 38.339844 70.476562 36.40625 69.636719 34.496094 68.734375 C 33.265625 68.101562 32.003906 67.515625 30.804688 66.820312 C 30.121094 66.46875 29.492188 66.011719 28.878906 65.558594 C 28.425781 65.21875 28.101562 64.800781 27.828125 64.316406 C 27.617188 63.9375 27.53125 63.519531 27.433594 63.101562 C 27.359375 62.824219 27.359375 62.542969 27.367188 62.257812 C 27.386719 61.796875 27.625 61.535156 27.910156 61.207031 C 28.378906 60.96875 28.855469 61.039062 29.355469 61.070312 C 30.09375 61.035156 30.835938 61.085938 31.574219 61.085938 C 32.742188 61.167969 33.910156 61.230469 35.074219 61.363281 C 36.441406 61.523438 37.808594 61.707031 39.175781 61.871094 C 40.605469 62.011719 41.984375 62.414062 43.359375 62.804688 C 44.808594 63.25 46.257812 63.703125 47.71875 64.121094 C 49.132812 64.523438 50.433594 65.199219 51.800781 65.734375 C 51.96875 65.800781 51.875 66.035156 51.707031 65.972656 C 50.339844 65.4375 48.917969 65.246094 47.507812 64.851562 C 46.050781 64.429688 44.59375 64.011719 43.136719 63.582031 C 41.796875 63.203125 40.4375 62.910156 39.0625 62.6875 C 37.710938 62.46875 36.355469 62.34375 34.992188 62.25 C 33.863281 62.179688 32.734375 62.074219 31.605469 62.183594 C 30.894531 62.226562 30.199219 62.359375 29.496094 62.476562 C 29.4375 62.492188 28.652344 62.742188 29.066406 62.667969 C 29.109375 62.597656 29.296875 62.386719 29.265625 62.34375 C 29.269531 62.386719 29.328125 62.640625 29.316406 62.761719 C 29.355469 62.96875 29.378906 63.179688 29.496094 63.363281 C 29.675781 63.605469 29.839844 63.851562 30.085938 64.035156 C 30.636719 64.476562 31.207031 64.898438 31.765625 65.332031 C 32.855469 66.121094 33.929688 66.929688 35.101562 67.59375 C 36.875 68.644531 38.695312 69.621094 40.613281 70.386719 C 42.976562 71.265625 45.40625 71.96875 47.875 72.484375 C 50.347656 72.949219 52.84375 73.296875 55.355469 73.445312 C 57.621094 73.585938 59.894531 73.550781 62.160156 73.445312 C 63.957031 73.375 65.753906 73.261719 67.542969 73.078125 C 68.613281 72.964844 69.6875 72.890625 70.753906 72.769531 C 71.195312 72.734375 71.644531 72.6875 72.066406 72.832031 C 72.957031 73.140625 73.09375 73.761719 72.234375 74.15625 Z M 72.234375 74.15625 " fill-opacity="1" fill-rule="nonzero"/><path fill="#809dff" d="M 77.8125 55.664062 C 77.988281 55.171875 78.308594 54.753906 78.652344 54.363281 C 79.253906 53.484375 79.851562 52.609375 80.480469 51.753906 C 81.101562 50.84375 81.75 49.957031 82.484375 49.128906 C 83.066406 48.457031 83.773438 48.011719 84.632812 47.789062 C 85.539062 47.628906 86.300781 48.027344 86.992188 48.574219 C 87.855469 49.109375 88.195312 50.003906 88.722656 50.800781 C 88.796875 50.921875 88.867188 51.046875 88.941406 51.167969 C 89.03125 51.324219 88.8125 51.453125 88.71875 51.296875 C 88.652344 51.179688 88.582031 51.058594 88.511719 50.941406 C 88.03125 50.214844 87.238281 49.714844 86.605469 49.128906 C 86.03125 48.789062 85.453125 48.472656 84.765625 48.496094 C 84.027344 48.640625 83.378906 48.902344 82.832031 49.464844 C 82.058594 50.214844 81.375 51.054688 80.773438 51.953125 C 80.210938 52.839844 79.640625 53.71875 79.160156 54.652344 C 79.035156 55.050781 78.859375 55.433594 78.808594 55.847656 C 78.726562 56.558594 77.570312 56.339844 77.8125 55.664062 Z M 77.8125 55.664062 " fill-opacity="1" fill-rule="nonzero"/><path fill="#809dff" d="M 80.097656 51.988281 C 79.988281 51.820312 79.796875 51.691406 79.640625 51.558594 C 79.390625 51.277344 79.066406 51.078125 78.765625 50.863281 C 78.445312 50.679688 78.085938 50.585938 77.730469 50.496094 C 77.328125 50.417969 76.921875 50.417969 76.515625 50.410156 C 76.128906 50.417969 75.765625 50.53125 75.398438 50.636719 C 75.0625 50.753906 74.800781 50.992188 74.519531 51.203125 C 74.21875 51.476562 73.976562 51.804688 73.75 52.140625 C 73.535156 52.453125 73.390625 52.800781 73.226562 53.140625 C 73.199219 53.191406 73.171875 53.246094 73.148438 53.296875 C 73.066406 53.457031 72.871094 53.390625 72.90625 53.214844 C 72.917969 53.15625 72.929688 53.097656 72.941406 53.039062 C 73.039062 52.640625 73.136719 52.234375 73.351562 51.878906 C 73.597656 51.511719 73.84375 51.140625 74.15625 50.820312 C 74.476562 50.511719 74.78125 50.214844 75.226562 50.09375 C 75.644531 49.96875 76.066406 49.894531 76.5 49.867188 C 76.949219 49.859375 77.398438 49.878906 77.839844 49.988281 C 78.261719 50.078125 78.675781 50.175781 79.035156 50.429688 C 79.367188 50.648438 79.699219 50.863281 80.019531 51.101562 C 80.214844 51.273438 80.414062 51.4375 80.574219 51.644531 C 80.828125 51.972656 80.320312 52.335938 80.097656 51.988281 Z M 80.097656 51.988281 " fill-opacity="1" fill-rule="nonzero"/><path fill="#809dff" d="M 64.660156 59.691406 C 64.679688 59.417969 64.59375 59.148438 64.542969 58.886719 C 64.363281 58.199219 64.210938 57.503906 64.046875 56.8125 C 63.871094 55.84375 63.613281 54.898438 63.417969 53.933594 C 63.28125 52.96875 63.160156 52.007812 63.125 51.03125 C 63.085938 50.148438 63.28125 49.285156 63.429688 48.417969 C 63.535156 47.800781 63.628906 47.179688 63.777344 46.570312 C 63.867188 46.089844 64.128906 45.828125 64.515625 45.578125 C 65.101562 45.359375 65.476562 45.609375 65.917969 45.988281 C 66.492188 46.613281 67.074219 47.238281 67.65625 47.859375 C 68.347656 48.566406 68.910156 49.375 69.453125 50.199219 C 69.550781 50.347656 69.339844 50.488281 69.238281 50.339844 C 68.707031 49.527344 68.148438 48.730469 67.472656 48.035156 C 66.90625 47.429688 66.347656 46.8125 65.65625 46.351562 C 65.367188 46.234375 65.125 46.058594 64.800781 46.117188 C 64.589844 46.308594 64.367188 46.4375 64.261719 46.734375 C 64.042969 47.300781 63.828125 47.871094 63.703125 48.472656 C 63.515625 49.308594 63.449219 50.167969 63.449219 51.023438 C 63.464844 51.976562 63.527344 52.941406 63.765625 53.863281 C 63.953125 54.8125 64.136719 55.777344 64.496094 56.679688 C 64.730469 57.34375 65.027344 57.964844 65.367188 58.582031 C 65.519531 58.871094 65.660156 59.160156 65.789062 59.460938 C 66.113281 60.207031 64.609375 60.503906 64.660156 59.691406 Z M 64.660156 59.691406 " fill-opacity="1" fill-rule="nonzero"/><path fill="#809dff" d="M 56.109375 54.714844 C 55.976562 54.429688 55.929688 54.109375 55.863281 53.800781 C 55.707031 53.148438 55.5625 52.492188 55.457031 51.828125 C 55.304688 50.851562 55.140625 49.878906 54.917969 48.917969 C 54.761719 48.074219 54.535156 47.238281 54.410156 46.386719 C 54.289062 45.71875 54.175781 45.046875 54.078125 44.371094 C 54.007812 43.996094 53.941406 43.628906 53.898438 43.25 C 53.917969 42.707031 54.160156 42.582031 54.628906 42.417969 C 55.027344 42.550781 55.289062 42.882812 55.574219 43.183594 C 56.046875 43.675781 56.460938 44.21875 56.890625 44.75 C 57.488281 45.410156 58.007812 46.125 58.515625 46.851562 C 59.070312 47.660156 59.59375 48.484375 60.128906 49.304688 C 60.640625 50.035156 61.070312 50.8125 61.503906 51.59375 C 61.808594 52.355469 62.152344 53.101562 62.425781 53.878906 C 62.683594 54.566406 62.882812 55.273438 63.097656 55.976562 C 63.1875 56.53125 63.273438 57.082031 63.378906 57.628906 C 63.414062 57.804688 63.191406 57.867188 63.132812 57.695312 C 62.957031 57.167969 62.761719 56.652344 62.542969 56.140625 C 62.34375 55.4375 62.125 54.746094 61.917969 54.046875 C 61.667969 53.292969 61.464844 52.507812 61.046875 51.824219 C 60.679688 51.03125 60.234375 50.269531 59.789062 49.519531 C 59.28125 48.691406 58.753906 47.878906 58.175781 47.09375 C 57.65625 46.394531 57.140625 45.691406 56.570312 45.03125 C 56.125 44.546875 55.664062 44.078125 55.121094 43.703125 C 55.039062 43.648438 54.566406 43.277344 54.636719 43.457031 C 54.664062 43.4375 55.113281 43.15625 54.964844 43.246094 C 54.949219 43.589844 54.910156 43.933594 54.945312 44.273438 C 55 44.941406 55.042969 45.609375 55.128906 46.273438 C 55.273438 47.113281 55.363281 47.960938 55.546875 48.792969 C 55.710938 49.75 55.894531 50.710938 56.199219 51.636719 C 56.421875 52.25 56.644531 52.867188 56.90625 53.464844 C 57.027344 53.753906 57.171875 54.039062 57.246094 54.347656 C 57.453125 55.167969 56.46875 55.480469 56.109375 54.714844 Z M 56.109375 54.714844 " fill-opacity="1" fill-rule="nonzero"/><path fill="#809dff" d="M 55.925781 54.824219 C 55.6875 54.503906 55.535156 54.121094 55.359375 53.757812 C 55 52.953125 54.578125 52.179688 54.21875 51.375 C 53.761719 50.464844 53.21875 49.605469 52.804688 48.679688 C 52.351562 47.707031 52 46.695312 51.6875 45.667969 C 51.414062 44.730469 51.050781 43.828125 50.742188 42.902344 C 50.417969 42.144531 50.246094 41.339844 50.039062 40.546875 C 49.898438 39.851562 49.824219 39.148438 49.710938 38.453125 C 49.667969 37.941406 49.523438 37.457031 49.488281 36.949219 C 49.4375 36.535156 49.402344 36.121094 49.367188 35.707031 C 49.320312 35.4375 49.324219 35.167969 49.304688 34.902344 C 49.300781 34.519531 49.457031 34.171875 49.574219 33.820312 C 49.648438 33.574219 49.71875 33.335938 49.792969 33.097656 C 49.859375 32.773438 50.097656 32.617188 50.324219 32.40625 C 50.707031 32.164062 51.109375 32.210938 51.535156 32.273438 C 52.101562 32.511719 52.570312 32.902344 53.046875 33.277344 C 53.742188 33.816406 54.386719 34.417969 55.054688 34.988281 C 55.832031 35.753906 56.574219 36.554688 57.300781 37.367188 C 58.066406 38.199219 58.726562 39.117188 59.40625 40.019531 C 60.019531 40.882812 60.464844 41.839844 60.839844 42.824219 C 61.070312 43.300781 61.273438 43.792969 61.472656 44.28125 C 61.542969 44.449219 61.304688 44.546875 61.238281 44.378906 C 61.039062 43.894531 60.835938 43.40625 60.609375 42.933594 C 60.085938 42.046875 59.605469 41.140625 59.046875 40.269531 C 58.441406 39.328125 57.71875 38.511719 56.917969 37.726562 C 56.15625 36.972656 55.445312 36.167969 54.628906 35.46875 C 54.011719 34.894531 53.328125 34.394531 52.601562 33.964844 C 52.160156 33.761719 51.722656 33.535156 51.234375 33.46875 C 51.144531 33.4375 51.089844 33.378906 51.023438 33.394531 C 50.992188 33.433594 50.949219 33.46875 50.925781 33.523438 C 50.832031 33.742188 50.734375 33.957031 50.648438 34.1875 C 50.582031 34.40625 50.503906 34.613281 50.519531 34.859375 C 50.523438 35.128906 50.550781 35.410156 50.507812 35.679688 C 50.5 36.078125 50.484375 36.476562 50.503906 36.871094 C 50.550781 37.375 50.480469 37.871094 50.527344 38.375 C 50.554688 39.054688 50.621094 39.734375 50.753906 40.402344 C 50.90625 41.183594 51.082031 41.960938 51.277344 42.734375 C 51.546875 43.671875 51.757812 44.625 52.054688 45.554688 C 52.386719 46.550781 52.65625 47.578125 53.121094 48.523438 C 53.582031 49.425781 54.003906 50.34375 54.519531 51.214844 C 54.976562 51.949219 55.382812 52.722656 55.925781 53.398438 C 56.179688 53.703125 56.449219 53.996094 56.679688 54.304688 C 57.066406 54.824219 56.308594 55.347656 55.925781 54.824219 Z M 55.925781 54.824219 " fill-opacity="1" fill-rule="nonzero"/><path fill="#809dff" d="M 62.21875 48.734375 C 62.027344 48.296875 61.925781 47.824219 61.808594 47.363281 C 61.550781 46.523438 61.292969 45.679688 60.972656 44.863281 C 60.578125 43.886719 60.339844 42.867188 60.136719 41.839844 C 59.953125 40.800781 59.769531 39.765625 59.582031 38.730469 C 59.425781 37.945312 59.324219 37.152344 59.230469 36.359375 C 59.179688 35.710938 59.128906 35.058594 59.097656 34.40625 C 59.050781 33.933594 59.035156 33.449219 59.035156 32.972656 C 59.015625 32.613281 59.128906 32.273438 59.203125 31.925781 C 59.378906 31.5 59.574219 31.359375 60.003906 31.265625 C 60.589844 31.363281 61.089844 31.695312 61.578125 32.015625 C 62.3125 32.589844 63.070312 33.132812 63.796875 33.726562 C 64.589844 34.375 65.242188 35.164062 65.863281 35.972656 C 66.269531 36.488281 66.660156 37.007812 67.019531 37.554688 C 67.121094 37.707031 66.925781 37.847656 66.8125 37.703125 C 66.414062 37.191406 66.035156 36.660156 65.664062 36.128906 C 65.054688 35.332031 64.410156 34.558594 63.632812 33.921875 C 62.925781 33.34375 62.210938 32.75 61.378906 32.351562 C 60.953125 32.148438 60.554688 31.863281 60.066406 31.882812 C 59.980469 31.953125 59.726562 31.859375 59.78125 32.109375 C 59.679688 32.402344 59.589844 32.695312 59.566406 33.007812 C 59.515625 33.472656 59.496094 33.941406 59.453125 34.40625 C 59.433594 35.050781 59.410156 35.691406 59.496094 36.335938 C 59.574219 37.121094 59.675781 37.90625 59.832031 38.683594 C 60.019531 39.71875 60.203125 40.753906 60.386719 41.789062 C 60.585938 42.800781 60.8125 43.8125 61.21875 44.761719 C 61.5625 45.578125 61.980469 46.359375 62.3125 47.175781 C 62.507812 47.574219 62.707031 47.976562 62.882812 48.382812 C 63.09375 48.871094 62.433594 49.222656 62.21875 48.734375 Z M 62.21875 48.734375 " fill-opacity="1" fill-rule="nonzero"/><path fill="#809dff" d="M 62.734375 48.414062 C 62.808594 48.035156 62.804688 47.644531 62.808594 47.261719 C 62.835938 46.628906 62.796875 45.996094 62.769531 45.363281 C 62.738281 44.707031 62.746094 44.050781 62.753906 43.398438 C 62.773438 42.921875 62.710938 42.453125 62.640625 41.988281 C 62.601562 41.597656 62.585938 41.210938 62.554688 40.828125 C 62.484375 40.496094 62.554688 40.175781 62.613281 39.851562 C 62.636719 39.570312 62.832031 39.40625 62.980469 39.195312 C 63.222656 38.890625 63.480469 38.941406 63.816406 38.910156 C 64.355469 39 64.78125 39.296875 65.207031 39.617188 C 65.75 40.066406 66.210938 40.589844 66.613281 41.167969 C 67.074219 41.890625 67.460938 42.65625 67.855469 43.414062 C 68.234375 44.175781 68.597656 44.945312 68.953125 45.714844 C 69.273438 46.351562 69.507812 47.011719 69.742188 47.679688 C 69.769531 47.769531 69.796875 47.859375 69.824219 47.945312 C 69.878906 48.117188 69.636719 48.195312 69.582031 48.023438 C 69.554688 47.9375 69.527344 47.847656 69.5 47.761719 C 69.269531 47.105469 69.007812 46.457031 68.722656 45.820312 C 68.367188 45.054688 68.007812 44.289062 67.628906 43.53125 C 67.238281 42.78125 66.859375 42.027344 66.402344 41.3125 C 66.023438 40.765625 65.597656 40.238281 65.035156 39.867188 C 64.640625 39.660156 64.257812 39.40625 63.792969 39.382812 C 63.636719 39.429688 63.472656 39.386719 63.359375 39.53125 C 63.257812 39.671875 63.132812 39.792969 63.0625 39.953125 C 63.035156 40.238281 62.996094 40.523438 62.992188 40.808594 C 63.003906 41.1875 63.03125 41.574219 63.058594 41.957031 C 63.046875 42.4375 63.03125 42.921875 63.007812 43.402344 C 63 44.050781 62.996094 44.703125 63.027344 45.351562 C 63.050781 45.984375 63.066406 46.617188 63.175781 47.238281 C 63.226562 47.609375 63.261719 47.992188 63.40625 48.339844 C 63.589844 48.777344 62.648438 48.882812 62.734375 48.414062 Z M 62.734375 48.414062 " fill-opacity="1" fill-rule="nonzero"/><path fill="#809dff" d="M 66.484375 41.375 C 66.542969 41.046875 66.566406 40.710938 66.585938 40.378906 C 66.589844 39.847656 66.707031 39.335938 66.835938 38.824219 C 66.945312 38.246094 67.144531 37.6875 67.363281 37.140625 C 67.601562 36.621094 67.984375 36.265625 68.421875 35.917969 C 68.796875 35.625 69.234375 35.433594 69.652344 35.210938 C 70.113281 34.964844 70.570312 34.953125 71.066406 34.984375 C 71.722656 35.1875 72.1875 35.664062 72.679688 36.117188 C 73.320312 36.71875 73.621094 37.554688 73.925781 38.355469 C 73.988281 38.527344 73.75 38.617188 73.683594 38.445312 C 73.398438 37.675781 72.984375 37.007812 72.386719 36.433594 C 71.953125 36.082031 71.515625 35.722656 70.957031 35.601562 C 70.570312 35.574219 70.257812 35.542969 69.902344 35.757812 C 69.5 35.929688 69.117188 36.132812 68.75 36.375 C 68.402344 36.65625 68.070312 36.957031 67.886719 37.378906 C 67.664062 37.882812 67.453125 38.386719 67.359375 38.9375 C 67.292969 39.417969 67.21875 39.902344 67.226562 40.390625 C 67.242188 40.695312 67.238281 41.011719 67.339844 41.300781 C 67.542969 41.871094 66.382812 41.972656 66.484375 41.378906 Z M 66.484375 41.375 " fill-opacity="1" fill-rule="nonzero"/><path fill="#809dff" d="M 73.347656 43.375 C 73.402344 43.085938 73.417969 42.796875 73.464844 42.507812 C 73.511719 41.914062 73.585938 41.328125 73.683594 40.738281 C 73.824219 40.066406 73.992188 39.402344 74.160156 38.738281 C 74.265625 38.164062 74.445312 37.605469 74.644531 37.058594 C 74.789062 36.621094 74.996094 36.21875 75.246094 35.832031 C 75.449219 35.496094 75.753906 35.257812 76.046875 35.015625 C 76.351562 34.714844 76.675781 34.628906 77.082031 34.574219 C 77.628906 34.558594 78.089844 34.765625 78.5625 34.992188 C 79.136719 35.433594 79.601562 35.984375 79.996094 36.589844 C 80.519531 37.316406 80.828125 38.15625 81.21875 38.953125 C 81.683594 39.753906 81.992188 40.632812 82.304688 41.503906 C 82.554688 42.3125 82.675781 43.144531 82.921875 43.953125 C 82.976562 44.125 82.734375 44.199219 82.679688 44.027344 C 82.433594 43.226562 82.058594 42.484375 81.734375 41.714844 C 81.40625 40.871094 81.03125 40.050781 80.667969 39.222656 C 80.292969 38.457031 79.867188 37.714844 79.421875 36.992188 C 79.054688 36.484375 78.683594 35.976562 78.160156 35.621094 C 77.839844 35.390625 77.539062 35.148438 77.128906 35.144531 C 76.867188 35.210938 76.585938 35.234375 76.351562 35.40625 C 76.101562 35.628906 75.839844 35.832031 75.628906 36.097656 C 75.398438 36.453125 75.148438 36.800781 74.996094 37.199219 C 74.785156 37.730469 74.574219 38.253906 74.417969 38.804688 C 74.242188 39.457031 74.054688 40.113281 73.976562 40.785156 C 73.902344 41.367188 73.824219 41.945312 73.820312 42.53125 C 73.839844 42.8125 73.824219 43.097656 73.886719 43.375 C 73.972656 43.746094 73.277344 43.75 73.347656 43.375 Z M 73.347656 43.375 " fill-opacity="1" fill-rule="nonzero"/><path fill="#809dff" d="M 79.667969 32.152344 C 80.054688 31.722656 80.285156 31.175781 80.570312 30.679688 C 81.003906 29.949219 81.492188 29.257812 81.992188 28.574219 C 82.394531 28.003906 82.84375 27.46875 83.300781 26.941406 C 83.554688 26.578125 83.886719 26.304688 84.230469 26.035156 C 84.644531 25.800781 84.863281 25.945312 85.253906 26.113281 C 85.582031 26.421875 85.902344 26.746094 86.214844 27.070312 C 86.648438 27.699219 87.074219 28.332031 87.421875 29.015625 C 87.792969 29.742188 88.167969 30.464844 88.445312 31.234375 C 88.710938 31.894531 88.925781 32.570312 89.125 33.25 C 89.296875 33.695312 89.28125 34.179688 89.28125 34.636719 C 89.28125 34.816406 89.113281 34.851562 89.03125 34.691406 C 88.832031 34.296875 88.617188 33.882812 88.5 33.433594 C 88.289062 32.773438 88.089844 32.105469 87.882812 31.445312 C 87.605469 30.703125 87.335938 29.953125 86.972656 29.25 C 86.625 28.613281 86.308594 27.9375 85.808594 27.402344 C 85.570312 27.074219 85.355469 26.742188 84.988281 26.539062 C 84.804688 26.480469 84.648438 26.34375 84.433594 26.410156 C 84.097656 26.609375 83.761719 26.8125 83.492188 27.113281 C 83.039062 27.632812 82.59375 28.160156 82.195312 28.726562 C 81.703125 29.402344 81.21875 30.085938 80.792969 30.804688 C 80.503906 31.308594 80.183594 31.808594 80.03125 32.375 C 79.953125 32.664062 79.46875 32.378906 79.667969 32.152344 Z M 79.667969 32.152344 " fill-opacity="1" fill-rule="nonzero"/><path fill="#809dff" d="M 82.335938 43.082031 C 82.488281 42.75 82.730469 42.472656 82.933594 42.167969 C 83.367188 41.5 83.875 40.886719 84.347656 40.246094 C 84.917969 39.492188 85.578125 38.816406 86.179688 38.089844 C 86.699219 37.464844 87.261719 36.878906 87.847656 36.316406 C 88.265625 35.902344 88.699219 35.5 89.128906 35.097656 C 89.394531 34.8125 89.734375 34.617188 90.058594 34.417969 C 90.671875 34.257812 90.859375 34.621094 90.953125 35.15625 C 91.125 35.671875 91.199219 36.207031 91.257812 36.75 C 91.363281 37.527344 91.398438 38.3125 91.433594 39.09375 C 91.457031 39.640625 91.488281 40.1875 91.515625 40.734375 C 91.523438 40.914062 91.269531 40.925781 91.261719 40.746094 C 91.234375 40.199219 91.199219 39.652344 91.179688 39.105469 C 91.144531 38.335938 91.117188 37.558594 90.996094 36.796875 C 90.863281 36.316406 90.753906 35.792969 90.503906 35.367188 C 90.324219 35.394531 90.222656 35.335938 90.445312 35.375 C 90.203125 35.507812 89.957031 35.636719 89.75 35.835938 C 89.285156 36.183594 88.828125 36.535156 88.375 36.898438 C 87.789062 37.417969 87.203125 37.9375 86.691406 38.53125 C 86.070312 39.222656 85.535156 39.980469 84.972656 40.71875 C 84.503906 41.324219 84.152344 41.992188 83.835938 42.691406 C 83.6875 42.996094 83.578125 43.320312 83.398438 43.609375 C 82.949219 44.316406 81.992188 43.84375 82.335938 43.082031 Z M 82.335938 43.082031 " fill-opacity="1" fill-rule="nonzero"/><path fill="#809dff" d="M 85.238281 47.238281 C 85.441406 46.945312 85.648438 46.664062 85.882812 46.398438 C 86.109375 46.035156 86.433594 45.792969 86.777344 45.554688 C 86.925781 45.453125 87.058594 45.625 86.9375 45.757812 C 86.679688 46.035156 86.421875 46.320312 86.167969 46.609375 C 86.015625 46.882812 85.839844 47.152344 85.816406 47.472656 C 85.785156 47.914062 84.984375 47.597656 85.238281 47.238281 Z M 85.238281 47.238281 " fill-opacity="1" fill-rule="nonzero"/><path fill="#809dff" d="M 89.425781 46.851562 C 89.347656 46.667969 89.210938 46.527344 89.097656 46.363281 C 88.800781 46.101562 88.441406 45.960938 88.082031 45.796875 C 88 45.800781 87.914062 45.804688 87.832031 45.808594 C 87.652344 45.820312 87.640625 45.5625 87.820312 45.554688 C 87.914062 45.550781 88.011719 45.546875 88.105469 45.542969 C 88.628906 45.5 89.082031 45.515625 89.527344 45.871094 C 89.761719 46.066406 89.988281 46.246094 90.09375 46.546875 C 90.265625 47.035156 89.625 47.328125 89.425781 46.851562 Z M 89.425781 46.851562 " fill-opacity="1" fill-rule="nonzero"/><path fill="#809dff" d="M 91.046875 42.433594 C 90.738281 42.726562 90.617188 43.1875 90.507812 43.597656 C 90.242188 44.6875 90.179688 45.828125 90.113281 46.949219 C 90.074219 47.542969 90.09375 48.132812 90.117188 48.726562 C 90.125 48.90625 89.871094 48.914062 89.863281 48.734375 C 89.839844 48.136719 89.820312 47.535156 89.859375 46.933594 C 89.929688 45.796875 90.070312 44.667969 90.160156 43.53125 C 90.214844 42.984375 90.207031 42.417969 90.398438 41.894531 C 90.601562 41.332031 91.480469 42.023438 91.046875 42.433594 Z M 91.046875 42.433594 " fill-opacity="1" fill-rule="nonzero"/><path fill="#809dff" d="M 91.929688 42.28125 C 91.875 42.496094 91.917969 42.707031 91.925781 42.925781 C 91.933594 43.105469 91.734375 43.136719 91.675781 42.964844 C 91.609375 42.78125 91.609375 42.582031 91.4375 42.453125 C 91.140625 42.230469 92.027344 41.925781 91.929688 42.28125 Z M 91.929688 42.28125 " fill-opacity="1" fill-rule="nonzero"/><path fill="#809dff" d="M 92.839844 43.464844 C 92.8125 43.078125 92.773438 42.722656 92.808594 42.335938 C 92.851562 41.792969 93.003906 41.261719 93.144531 40.734375 C 93.230469 40.269531 93.421875 39.851562 93.636719 39.433594 C 93.839844 39.089844 94.089844 38.847656 94.417969 38.636719 C 95.160156 38.554688 95.273438 39.042969 95.542969 39.628906 C 95.84375 40.507812 96.222656 41.355469 96.523438 42.238281 C 96.585938 42.429688 96.644531 42.625 96.707031 42.816406 C 96.761719 42.988281 96.519531 43.066406 96.464844 42.894531 C 96.402344 42.703125 96.34375 42.511719 96.28125 42.320312 C 95.992188 41.46875 95.71875 40.589844 95.09375 39.917969 C 94.972656 39.800781 94.414062 39.5 94.773438 39.515625 C 94.65625 39.609375 94.433594 39.691406 94.363281 39.890625 C 94.160156 40.222656 93.945312 40.550781 93.839844 40.933594 C 93.710938 41.425781 93.589844 41.917969 93.496094 42.417969 C 93.453125 42.773438 93.328125 43.109375 93.332031 43.464844 C 93.335938 43.8125 92.863281 43.8125 92.839844 43.464844 Z M 92.839844 43.464844 " fill-opacity="1" fill-rule="nonzero"/><path fill="#809dff" d="M 90.574219 32.207031 C 90.902344 31.707031 91.292969 31.234375 91.613281 30.714844 C 92.160156 29.839844 92.683594 28.949219 93.207031 28.0625 C 93.578125 27.417969 93.996094 26.804688 94.40625 26.1875 C 94.695312 25.722656 95.066406 25.441406 95.554688 25.226562 C 96.171875 25.171875 96.503906 25.527344 96.875 25.96875 C 97.359375 26.492188 97.5625 27.160156 97.75 27.832031 C 98.023438 28.777344 98.25 29.742188 98.382812 30.71875 C 98.558594 31.722656 98.574219 32.742188 98.617188 33.761719 C 98.648438 34.1875 98.589844 34.609375 98.574219 35.035156 C 98.570312 35.214844 98.316406 35.207031 98.320312 35.027344 C 98.335938 34.605469 98.300781 34.1875 98.324219 33.761719 C 98.351562 32.757812 98.265625 31.753906 98.121094 30.757812 C 97.953125 29.804688 97.816406 28.84375 97.507812 27.917969 C 97.253906 27.320312 96.902344 26.800781 96.523438 26.273438 C 96.257812 26.039062 96.046875 25.761719 95.675781 25.730469 C 95.261719 25.859375 94.929688 26 94.65625 26.382812 C 94.191406 26.949219 93.785156 27.550781 93.425781 28.191406 C 92.902344 29.082031 92.375 29.96875 91.832031 30.847656 C 91.515625 31.355469 91.257812 31.894531 91.007812 32.421875 C 90.859375 32.730469 90.382812 32.492188 90.574219 32.207031 Z M 90.574219 32.207031 " fill-opacity="1" fill-rule="nonzero"/><path fill="#809dff" d="M 97.796875 35.605469 C 98.214844 35.335938 98.523438 34.941406 98.859375 34.578125 C 99.1875 34.1875 99.46875 33.765625 99.78125 33.359375 C 99.984375 33.070312 100.257812 32.847656 100.523438 32.617188 C 101.023438 32.46875 101.292969 32.582031 101.648438 32.910156 C 101.972656 33.417969 102.121094 33.972656 102.242188 34.558594 C 102.347656 35.554688 102.402344 36.554688 102.378906 37.558594 C 102.355469 38.757812 102.1875 39.945312 102.039062 41.136719 C 101.769531 42.453125 101.421875 43.75 100.976562 45.019531 C 100.464844 46.222656 100.195312 47.519531 99.574219 48.671875 C 99.167969 49.128906 98.882812 49.597656 98.671875 50.167969 C 98.605469 50.335938 98.367188 50.246094 98.433594 50.078125 C 98.644531 49.511719 98.734375 48.972656 98.722656 48.359375 C 99 47.089844 99.65625 45.945312 100.007812 44.695312 C 100.394531 43.480469 100.847656 42.269531 100.917969 40.984375 C 101.078125 39.847656 101.152344 38.703125 101.175781 37.554688 C 101.15625 36.636719 101.144531 35.710938 100.902344 34.816406 C 100.808594 34.390625 100.726562 33.957031 100.671875 33.527344 C 100.707031 33.484375 100.851562 33.378906 100.84375 33.3125 C 100.625 33.414062 100.347656 33.511719 100.152344 33.722656 C 99.765625 34.042969 99.378906 34.363281 99.050781 34.746094 C 98.75 35.109375 98.378906 35.445312 98.265625 35.914062 C 98.171875 36.300781 97.460938 35.820312 97.796875 35.605469 Z M 97.796875 35.605469 " fill-opacity="1" fill-rule="nonzero"/><path fill="#809dff" d="M 69.433594 34.738281 C 69.625 34.210938 69.914062 33.710938 70.148438 33.195312 C 70.644531 32.101562 71.0625 30.972656 71.492188 29.855469 C 71.871094 28.871094 72.191406 27.867188 72.585938 26.890625 C 72.792969 26.230469 73.035156 25.585938 73.320312 24.960938 C 73.542969 24.460938 73.871094 24.109375 74.300781 23.796875 C 75 23.433594 75.46875 23.773438 76.027344 24.203125 C 76.589844 24.800781 77.144531 25.414062 77.578125 26.113281 C 78.09375 26.910156 78.582031 27.730469 79.035156 28.566406 C 79.433594 29.324219 79.757812 30.113281 80.09375 30.898438 C 80.164062 31.066406 79.929688 31.164062 79.859375 31 C 79.527344 30.222656 79.207031 29.4375 78.8125 28.6875 C 78.367188 27.867188 77.855469 27.109375 77.152344 26.480469 C 76.570312 26 76.078125 25.410156 75.433594 25.007812 C 75.25 24.914062 75.066406 24.808594 74.882812 24.726562 C 74.652344 24.949219 74.414062 25.148438 74.277344 25.449219 C 73.960938 26.027344 73.640625 26.609375 73.367188 27.210938 C 72.964844 28.179688 72.515625 29.128906 72.128906 30.105469 C 71.679688 31.191406 71.191406 32.289062 71.007812 33.453125 C 70.921875 33.96875 70.867188 34.484375 70.832031 35.003906 C 70.769531 36.007812 69.085938 35.6875 69.433594 34.738281 Z M 69.433594 34.738281 " fill-opacity="1" fill-rule="nonzero"/><path fill="#809dff" d="M 61.191406 31.433594 C 61.503906 31.179688 61.75 30.867188 62.007812 30.566406 C 62.347656 30.035156 62.667969 29.488281 63 28.953125 C 63.089844 28.792969 63.199219 28.640625 63.300781 28.488281 C 63.398438 28.335938 63.609375 28.476562 63.511719 28.628906 C 63.414062 28.78125 63.304688 28.929688 63.214844 29.085938 C 62.886719 29.621094 62.550781 30.152344 62.253906 30.707031 C 62.117188 31.074219 61.964844 31.4375 61.898438 31.828125 C 61.800781 32.390625 60.75 31.796875 61.191406 31.433594 Z M 61.191406 31.433594 " fill-opacity="1" fill-rule="nonzero"/><path fill="#809dff" d="M 67.332031 26.667969 C 67.707031 26.71875 68 26.945312 68.328125 27.125 C 68.746094 27.402344 69.179688 27.652344 69.609375 27.914062 C 70.003906 28.121094 70.324219 28.410156 70.632812 28.726562 C 70.855469 29.003906 71.066406 29.257812 71.324219 29.488281 C 71.5 29.636719 71.648438 29.816406 71.800781 29.984375 L 71.65625 30.234375 C 71.558594 30.414062 71.625 30.332031 71.449219 30.433594 C 71.367188 30.484375 71.285156 30.53125 71.203125 30.578125 C 71.03125 30.414062 70.851562 30.246094 70.695312 30.066406 C 70.5 29.777344 70.289062 29.519531 70.050781 29.257812 C 69.785156 28.996094 69.519531 28.726562 69.214844 28.503906 C 68.824219 28.214844 68.4375 27.929688 67.976562 27.753906 C 67.691406 27.597656 67.40625 27.46875 67.117188 27.332031 C 66.671875 27.121094 66.84375 26.601562 67.332031 26.667969 Z M 67.332031 26.667969 " fill-opacity="1" fill-rule="nonzero"/><g clip-path="url(#3365f213a5)"><path fill="#809dff" d="M 85.277344 26.066406 C 85.605469 25.882812 85.871094 25.609375 86.148438 25.359375 C 86.65625 24.957031 87.066406 24.453125 87.507812 23.976562 C 87.796875 23.597656 88.121094 23.25 88.453125 22.910156 C 88.828125 22.550781 89.191406 22.550781 89.671875 22.582031 C 90.242188 22.808594 90.640625 23.308594 91.0625 23.730469 C 91.570312 24.304688 92.003906 24.9375 92.460938 25.554688 C 92.789062 26.027344 93.117188 26.492188 93.371094 27.007812 C 93.460938 27.230469 93.398438 27.457031 93.363281 27.6875 C 93.339844 27.863281 93.273438 27.878906 93.125 27.773438 C 92.960938 27.660156 92.777344 27.546875 92.660156 27.375 C 92.382812 26.902344 92.167969 26.398438 91.878906 25.929688 C 91.511719 25.300781 91.121094 24.6875 90.605469 24.164062 C 90.273438 23.835938 89.972656 23.503906 89.5 23.367188 C 89.292969 23.378906 89.128906 23.28125 88.945312 23.484375 C 88.59375 23.765625 88.246094 24.050781 87.914062 24.359375 C 87.460938 24.820312 86.988281 25.261719 86.636719 25.804688 C 86.410156 26.109375 86.167969 26.40625 85.996094 26.746094 C 85.679688 27.371094 84.667969 26.410156 85.277344 26.066406 Z M 85.277344 26.066406 " fill-opacity="1" fill-rule="nonzero"/></g><path fill="#809dff" d="M 52.351562 32.6875 C 52.398438 32.316406 52.441406 31.941406 52.5 31.570312 C 52.585938 31.042969 52.65625 30.519531 52.699219 29.984375 C 52.726562 29.539062 52.898438 29.164062 53.128906 28.789062 C 53.5625 28.335938 53.972656 28.378906 54.527344 28.449219 C 55.125 28.625 55.644531 28.890625 56.164062 29.222656 C 56.703125 29.667969 57.226562 30.121094 57.730469 30.605469 C 58.109375 30.917969 58.375 31.304688 58.625 31.714844 C 58.722656 31.867188 58.566406 31.996094 58.429688 31.878906 C 58.078125 31.570312 57.746094 31.25 57.460938 30.875 C 56.988281 30.394531 56.535156 29.886719 55.957031 29.53125 C 55.5 29.242188 55.074219 28.898438 54.503906 28.976562 C 54.25 29.070312 53.988281 29.097656 53.796875 29.308594 C 53.660156 29.566406 53.464844 29.800781 53.4375 30.125 C 53.300781 30.625 53.210938 31.128906 53.167969 31.644531 C 53.140625 32.03125 53.085938 32.414062 53.03125 32.792969 C 52.960938 33.273438 52.285156 33.167969 52.351562 32.6875 Z M 52.351562 32.6875 " fill-opacity="1" fill-rule="nonzero"/><path fill="#809dff" d="M 73.015625 47.304688 C 73.214844 47.636719 73.246094 48.015625 73.285156 48.394531 C 73.398438 49.089844 73.449219 49.679688 73.125 50.320312 C 73.140625 50.445312 73.15625 50.574219 73.171875 50.703125 C 73.195312 50.882812 72.941406 50.910156 72.917969 50.734375 C 72.902344 50.605469 72.886719 50.476562 72.875 50.351562 C 72.417969 49.820312 72.320312 49.25 72.21875 48.574219 C 72.144531 48.183594 72.050781 47.800781 72.195312 47.417969 C 72.398438 46.871094 72.714844 46.804688 73.015625 47.304688 Z M 73.015625 47.304688 " fill-opacity="1" fill-rule="nonzero"/><path fill="#809dff" d="M 75.542969 46.675781 C 75.566406 47.152344 75.5 47.710938 75.5 48.222656 C 75.535156 48.84375 75.378906 49.429688 75.441406 50.046875 C 75.460938 50.226562 75.210938 50.253906 75.1875 50.078125 C 75.113281 49.453125 74.839844 48.894531 74.796875 48.261719 C 74.742188 47.769531 74.648438 47.234375 74.578125 46.78125 C 74.472656 46.101562 75.507812 45.992188 75.542969 46.675781 Z M 75.542969 46.675781 " fill-opacity="1" fill-rule="nonzero"/><path fill="#809dff" d="M 78.265625 44.3125 C 78.3125 44.824219 78.203125 45.316406 78.121094 45.816406 C 78.089844 46.785156 77.683594 47.636719 77.414062 48.542969 C 77.363281 48.714844 77.195312 48.710938 77.160156 48.535156 C 76.964844 47.605469 76.675781 46.71875 76.757812 45.753906 C 76.722656 45.320312 76.65625 44.882812 76.621094 44.449219 C 76.535156 43.289062 78.167969 43.152344 78.265625 44.3125 Z M 78.265625 44.3125 " fill-opacity="1" fill-rule="nonzero"/><path fill="#809dff" d="M 80.074219 46.691406 C 80.003906 47.121094 79.902344 47.554688 79.839844 47.992188 C 79.78125 48.5 79.609375 48.976562 79.515625 49.480469 C 79.484375 49.65625 79.265625 49.636719 79.261719 49.457031 C 79.257812 48.9375 79.175781 48.433594 79.25 47.914062 C 79.296875 47.488281 79.316406 47.0625 79.320312 46.640625 C 79.324219 46.105469 80.15625 46.164062 80.074219 46.691406 Z M 80.074219 46.691406 " fill-opacity="1" fill-rule="nonzero"/><path fill="#809dff" d="M 82.65625 45.574219 C 82.539062 46.1875 82.296875 46.816406 82.117188 47.429688 C 81.867188 48.25 81.484375 48.972656 81.34375 49.824219 C 81.3125 50.003906 81.0625 49.960938 81.09375 49.785156 C 81.234375 48.941406 81.132812 48.132812 81.15625 47.28125 C 81.164062 46.671875 81.097656 46.050781 81.046875 45.460938 C 80.949219 44.324219 82.875 44.453125 82.65625 45.574219 Z M 82.65625 45.574219 " fill-opacity="1" fill-rule="nonzero"/><path fill="#809dff" d="M 86.734375 77.265625 C 87.066406 77.699219 87.445312 78.097656 87.8125 78.5 C 88.722656 79.101562 89.632812 79.789062 90.402344 80.578125 C 91.324219 81.550781 92.234375 82.527344 93.15625 83.507812 C 93.898438 84.304688 94.851562 84.867188 95.738281 85.496094 C 96.632812 86.015625 97.585938 86.316406 98.570312 86.597656 C 99.914062 86.90625 101.304688 86.929688 102.679688 86.933594 C 104.652344 86.878906 106.613281 86.695312 108.554688 86.355469 C 110.808594 85.976562 112.984375 85.265625 115.121094 84.46875 C 116.898438 83.777344 118.628906 82.96875 120.332031 82.109375 C 121.238281 81.609375 122.167969 81.144531 123.078125 80.648438 C 123.605469 80.359375 124.113281 80.160156 124.695312 80.082031 C 125.058594 80.265625 125.445312 80.367188 125.808594 80.511719 C 126.046875 80.605469 126.027344 80.582031 125.976562 80.832031 C 125.894531 81.214844 125.789062 81.609375 125.699219 82.003906 C 125.199219 82.472656 124.675781 82.769531 123.988281 82.929688 C 122.996094 83.207031 122.019531 83.53125 121.027344 83.816406 C 119.191406 84.398438 117.382812 85.066406 115.570312 85.71875 C 113.347656 86.476562 111.109375 87.1875 108.824219 87.734375 C 106.824219 88.167969 104.8125 88.59375 102.761719 88.738281 C 101.195312 88.878906 99.613281 88.980469 98.050781 88.703125 C 96.808594 88.433594 95.570312 87.976562 94.566406 87.179688 C 93.558594 86.425781 92.664062 85.640625 91.886719 84.644531 C 91.019531 83.628906 90.210938 82.574219 89.347656 81.5625 C 88.625 80.757812 87.976562 79.878906 87.289062 79.054688 C 86.851562 78.6875 86.421875 78.3125 85.988281 77.949219 C 85.4375 77.488281 86.300781 76.695312 86.734375 77.265625 Z M 86.734375 77.265625 " fill-opacity="1" fill-rule="nonzero"/><path fill="#809dff" d="M 100.78125 69.542969 C 101.78125 69.660156 102.773438 69.527344 103.757812 69.371094 C 106.183594 69.074219 108.496094 68.269531 110.785156 67.464844 C 113.351562 66.582031 115.863281 65.550781 118.328125 64.421875 C 119.980469 63.570312 121.519531 62.527344 123.042969 61.46875 C 124.011719 60.792969 124.988281 60.125 125.925781 59.402344 C 126.609375 58.882812 127.21875 58.285156 127.800781 57.65625 C 128.132812 57.320312 128.382812 56.949219 128.625 56.550781 C 128.648438 56.453125 128.628906 56.351562 128.628906 56.253906 C 128.757812 56.273438 127.960938 56.003906 127.824219 55.964844 C 126.445312 55.722656 125.027344 55.773438 123.628906 55.859375 C 121.710938 55.945312 119.804688 56.238281 117.898438 56.503906 C 116.054688 56.804688 114.210938 57.089844 112.371094 57.410156 C 112.117188 57.453125 112.058594 57.097656 112.308594 57.054688 C 114.152344 56.734375 116.003906 56.449219 117.851562 56.148438 C 119.761719 55.878906 121.675781 55.652344 123.59375 55.417969 C 125.042969 55.257812 126.484375 55.011719 127.9375 54.867188 C 128.78125 54.902344 129.578125 54.851562 130.097656 55.621094 C 130.207031 56.183594 130.265625 56.628906 129.945312 57.148438 C 129.652344 57.710938 129.378906 58.300781 128.910156 58.738281 C 128.21875 59.363281 127.503906 59.976562 126.722656 60.5 C 125.699219 61.164062 124.703125 61.867188 123.601562 62.40625 C 121.929688 63.265625 120.210938 64.027344 118.476562 64.75 C 116.003906 65.882812 113.480469 66.917969 110.90625 67.804688 C 108.589844 68.617188 106.277344 69.429688 103.988281 70.316406 C 102.945312 70.652344 101.933594 71.066406 100.898438 71.410156 C 99.640625 71.828125 99.46875 69.382812 100.78125 69.542969 Z M 100.78125 69.542969 " fill-opacity="1" fill-rule="nonzero"/><path fill="#809dff" d="M 81.984375 78.675781 C 81.464844 78.589844 80.992188 78.765625 80.5 78.90625 C 79.691406 79.542969 79.816406 78.957031 79.585938 78.9375 C 80.09375 79.148438 80.652344 79.054688 81.1875 79.023438 C 81.917969 78.847656 82.132812 78.757812 82.742188 79.027344 C 82.683594 79.535156 82.371094 79.941406 82.148438 80.402344 C 82.65625 81.148438 82.546875 82.109375 82.699219 83.078125 C 82.78125 84.273438 83.03125 85.410156 82.839844 86.605469 C 82.476562 88.894531 82.242188 91.195312 81.996094 93.496094 C 81.757812 97.113281 81.445312 100.722656 81.328125 104.34375 C 81.1875 107.902344 81.203125 111.464844 81.0625 115.023438 C 81.183594 116.722656 80.746094 118.359375 80.558594 120.027344 C 80.527344 120.28125 80.21875 120.277344 80.195312 120.023438 C 80.050781 118.34375 79.675781 116.6875 79.898438 114.992188 C 79.949219 111.429688 80.175781 107.871094 80.230469 104.3125 C 80.324219 100.6875 80.261719 97.058594 80.253906 93.433594 C 80.171875 91.085938 80.097656 88.738281 80.046875 86.394531 C 80.042969 85.203125 80.5 84.191406 80.726562 83.039062 C 80.804688 81.945312 80.910156 81.066406 81.535156 80.25 C 81.578125 80.066406 81.796875 78.757812 81.863281 79.359375 C 81.648438 79.367188 81.429688 79.398438 81.214844 79.382812 C 80.507812 79.425781 79.765625 79.539062 79.101562 79.257812 C 78.585938 78.304688 79.460938 78.289062 80.199219 78 C 80.730469 77.816406 81.269531 77.644531 81.773438 77.402344 C 82.597656 77.007812 82.886719 78.828125 81.984375 78.675781 Z M 81.984375 78.675781 " fill-opacity="1" fill-rule="nonzero"/><g clip-path="url(#ec49f399f2)"><path fill="#809dff" d="M 77.914062 118.316406 C 80.207031 118.121094 82.238281 116.53125 84.214844 115.449219 C 90.101562 112.269531 96.339844 109.839844 102.628906 107.59375 C 110.265625 104.90625 118.1875 103.285156 126.210938 102.335938 C 131.652344 101.789062 137.152344 102.058594 142.574219 102.691406 C 146.890625 103.363281 146.480469 106.746094 143.617188 109.039062 C 142.375 109.769531 141.257812 110.765625 140.402344 111.921875 C 139.566406 108.550781 141.539062 110.761719 143.585938 111.941406 C 146.085938 113.140625 148.167969 114.65625 149.34375 117.199219 C 150.007812 120.308594 147.742188 122.011719 145.359375 123.429688 C 142.027344 125.027344 138.417969 125.9375 134.8125 126.671875 C 129.421875 127.425781 124.003906 127.402344 118.585938 127.148438 C 111.472656 126.679688 104.382812 125.910156 97.28125 125.269531 C 91.214844 124.671875 85.121094 124.429688 79.027344 124.285156 C 76.570312 124.199219 73.839844 124.109375 71.742188 125.359375 C 72.839844 122.894531 72.765625 123.742188 75.648438 124.703125 C 80.132812 126.09375 84.828125 126.511719 89.496094 126.703125 C 95.175781 126.882812 100.859375 126.832031 106.539062 126.839844 C 111.542969 126.863281 116.546875 126.925781 121.550781 126.859375 C 123.726562 126.839844 125.902344 126.75 128.078125 126.664062 C 128.4375 126.648438 128.457031 127.160156 128.097656 127.171875 C 125.917969 127.257812 123.738281 127.347656 121.554688 127.371094 C 116.550781 127.433594 111.546875 127.371094 106.539062 127.351562 C 100.851562 127.34375 95.160156 127.394531 89.472656 127.210938 C 84.734375 127.019531 79.996094 126.90625 75.261719 126.609375 C 73.59375 126.464844 66.976562 125.628906 71.171875 123.003906 C 73.78125 123.378906 76.390625 123.851562 79.039062 123.777344 C 85.144531 123.921875 91.246094 124.164062 97.328125 124.761719 C 104.421875 125.402344 111.503906 126.171875 118.609375 126.640625 C 123.9375 126.886719 129.402344 127.1875 134.605469 125.78125 C 137.988281 124.878906 141.253906 123.648438 144.050781 121.480469 C 145.179688 120.609375 146.277344 119.707031 146.433594 118.207031 C 145.800781 116.28125 144.519531 115.082031 142.5625 114.292969 C 139.863281 113.5 136.847656 113.96875 136.640625 110.445312 C 137.972656 108.800781 140.128906 108.324219 141.664062 106.847656 C 142.75 105.699219 143.671875 106.074219 142.007812 104.480469 C 137.203125 101.757812 131.589844 102.476562 126.269531 102.839844 C 118.285156 103.785156 110.398438 105.398438 102.800781 108.070312 C 96.539062 110.3125 90.324219 112.730469 84.460938 115.894531 C 82.375 117.035156 80.140625 118.027344 78.351562 119.609375 C 77.628906 120.246094 76.949219 118.398438 77.914062 118.316406 Z M 77.914062 118.316406 " fill-opacity="1" fill-rule="nonzero"/></g><path fill="#809dff" d="M 76.179688 117.882812 C 75.859375 116.140625 75 114.5625 74.203125 112.976562 C 71.480469 108.753906 67.097656 105.960938 62.910156 103.351562 C 56.488281 99.554688 49.4375 97.097656 42.308594 95.023438 C 34.941406 92.980469 27.359375 92.023438 19.734375 91.832031 C 14.9375 92.039062 9.300781 91.925781 5.605469 95.425781 C 3.511719 98.691406 5.488281 101.703125 7.808594 104.203125 C 12.96875 108.679688 19.355469 111.199219 25.71875 113.433594 C 31.472656 115.199219 37.511719 116.800781 43.554688 115.910156 C 45.941406 115.144531 47.460938 113.96875 46.511719 111.523438 C 44.210938 107.34375 39.492188 106.195312 35.21875 105.0625 C 28.910156 103.550781 22.441406 103.347656 16.003906 103.773438 C 11.863281 104.394531 6.75 104.578125 3.863281 108.015625 C 2.527344 110.582031 4.726562 112.648438 6.492188 114.324219 C 11.851562 117.667969 18.074219 119.128906 24.160156 120.511719 C 31.9375 122.207031 39.878906 122.671875 47.8125 122.6875 C 53.8125 122.65625 59.785156 122.078125 65.726562 121.277344 C 66.082031 121.226562 66.152344 121.734375 65.792969 121.78125 C 59.832031 122.585938 53.835938 123.164062 47.808594 123.195312 C 39.839844 123.179688 31.859375 122.710938 24.046875 121.011719 C 17.890625 119.609375 11.601562 118.121094 6.183594 114.734375 C 3.410156 113.050781 0 110.308594 3.109375 107.128906 C 7.011719 104.738281 11.429688 103.652344 15.96875 103.265625 C 22.464844 102.839844 28.988281 103.046875 35.347656 104.570312 C 39.972656 105.796875 44.988281 107.238281 48.519531 110.609375 C 50.503906 114.660156 47.664062 116.789062 43.617188 116.726562 C 37.453125 116.773438 31.394531 115.988281 25.550781 113.914062 C 19.117188 111.652344 12.65625 109.097656 7.441406 104.558594 C 4.664062 101.828125 1.132812 98.164062 5.070312 94.714844 C 9.566406 92.050781 14.539062 91.230469 19.746094 91.320312 C 27.417969 91.519531 35.042969 92.476562 42.453125 94.535156 C 49.625 96.625 56.722656 99.09375 63.183594 102.921875 C 67.503906 105.617188 71.542969 108.644531 75.046875 112.371094 C 76.445312 113.792969 77.835938 115.398438 78.5625 117.261719 C 79.195312 118.882812 76.496094 119.59375 76.183594 117.882812 Z M 76.179688 117.882812 " fill-opacity="1" fill-rule="nonzero"/></svg>